<svg width="515" height="440" viewBox="0 0 515 440" fill="none" xmlns="http://www.w3.org/2000/svg">
<g opacity="0.2">
<path d="M333.793 436L332.485 435.995L332.69 389.399L307.889 366.264L307.889 307.658L262.362 265.219L109.858 265.219L84.8092 283.593L84.0001 282.635L109.227 264.13L109.405 264L262.903 264L309.197 307.153L309.197 365.759L334 388.896L333.793 436Z" fill="#172429"/>
<path d="M286.796 143.766L261.942 168.622L97.1976 168.622L97.0131 168.462L83.1269 156.427L83.9863 155.436L97.6875 167.311L261.398 167.311L285.484 143.222L285.484 101.875L269.294 85.6834L270.221 84.7562L286.796 101.332L286.796 143.766Z" fill="#172429"/>
<path d="M314.579 144.18L287.018 171.743L286.09 170.816L313.268 143.637L313.268 109.899L314.579 109.899L314.579 144.18Z" fill="#172429"/>
<path d="M339.878 113.544L339.878 162.014L309.225 192.668L101.397 192.668L83.1928 180.535L83.9203 179.444L101.794 191.357L308.682 191.357L338.566 161.471L338.566 112.882L365.788 92.7804L366.567 93.8358L339.878 113.544Z" fill="#172429"/>
<path d="M422.815 53.357L405.812 70.3619L405.812 96.4904L366.849 135.456L365.922 134.528L404.5 95.9474L404.5 69.8189L421.504 52.8139L421.504 26.5311L422.815 26.5311L422.815 53.357Z" fill="#172429"/>
<path d="M465.117 120.537L434.879 150.789L400.043 150.789L377.422 173.4L376.494 172.473L399.5 149.477L434.336 149.477L463.806 119.994L463.806 52.2456L465.117 52.2456L465.117 120.537Z" fill="#172429"/>
<path d="M499.953 132.157L480.686 151.425L479.759 150.498L498.642 131.614L498.642 93.7222L499.953 93.7222L499.953 132.157Z" fill="#172429"/>
<path d="M464.462 175.663L418.018 175.663L418.018 174.351L464.462 174.351L464.462 175.663Z" fill="#172429"/>
<path d="M402.257 193.082L356.115 193.082L336.211 216.312L109.712 216.312L81.7641 239.185L80.9335 238.17L109.062 215.148L109.243 215L335.608 215L355.512 191.771L402.257 191.771L402.257 193.082Z" fill="#172429"/>
<path d="M485.062 205.945L436.122 205.945L417.239 224.829L416.311 223.902L435.578 204.634L484.519 204.634L509.199 179.94L510.127 180.867L485.062 205.945Z" fill="#172429"/>
<path d="M498.834 272.531L465.858 239.542L403.085 239.542L403.085 238.23L466.401 238.23L499.761 271.603L498.834 272.531Z" fill="#172429"/>
<path d="M480.223 295.941L432.679 295.941L409.866 273.137L387.052 273.137L356.576 242.648L333.413 242.648L333.413 241.337L357.12 241.337L387.596 271.826L410.409 271.826L433.222 294.629L480.223 294.629L480.223 295.941Z" fill="#172429"/>
<path d="M377.322 366.667L346.033 335.377L346.033 275.653L311.389 241.006L312.316 240.079L347.344 275.109L347.344 334.834L378.249 365.74L377.322 366.667Z" fill="#172429"/>
<path d="M436.087 436L404.641 405.481L404.641 355.919L384 335.886L384.913 335L405.933 355.4L405.933 404.962L437 435.114L436.087 436Z" fill="#172429"/>
<path d="M425.726 361.648L424.415 361.648L424.415 332.478L399.5 307.562L362.451 307.562L362.451 306.25L400.043 306.25L425.726 331.934L425.726 361.648Z" fill="#172429"/>
<path d="M445.215 413.077L443.903 413.077L443.903 348.371L445.215 348.371L445.215 413.077Z" fill="#172429"/>
<path d="M473.826 371.6L472.515 371.6L472.515 341.601L450.733 319.807L451.66 318.88L473.826 341.058L473.826 371.6Z" fill="#172429"/>
<path d="M324.24 287.04L299.77 262.568L300.697 261.641L325.167 286.112L324.24 287.04Z" fill="#172429"/>
<path d="M395.075 433L364.456 413.847L364.265 413.727L364.265 381.121L333 361.579L333.925 361L365.574 380.782L365.574 413.389L396 432.421L395.075 433Z" fill="#172429"/>
<path d="M74.0747 437L43.4559 415.453L43.2648 415.318L43.2648 378.636L12 356.651L12.9254 356L44.5736 378.255L44.5736 414.937L75 436.349L74.0747 437Z" fill="#172429"/>
<path d="M286 374L284.688 374L284.688 323.144L255 295.853L255.928 295L286 322.644L286 374Z" fill="#172429"/>
<path d="M495.984 92.0655C495.984 93.8955 497.468 95.379 499.297 95.379C501.127 95.379 502.611 93.8955 502.611 92.0655C502.611 90.2355 501.127 88.752 499.297 88.752C497.468 88.752 495.984 90.2355 495.984 92.0655Z" fill="#172429"/>
<path d="M476.909 150.961C476.909 152.791 478.393 154.274 480.223 154.274C482.053 154.274 483.536 152.791 483.536 150.961C483.536 149.131 482.053 147.647 480.223 147.647C478.393 147.647 476.909 149.131 476.909 150.961Z" fill="#172429"/>
<path d="M506.35 181.232C506.35 183.062 507.833 184.545 509.663 184.545C511.493 184.545 512.976 183.062 512.976 181.232C512.976 179.402 511.493 177.918 509.663 177.918C507.833 177.918 506.35 179.402 506.35 181.232Z" fill="#172429"/>
<path d="M461.148 175.007C461.148 176.837 462.632 178.321 464.462 178.321C466.291 178.321 467.775 176.837 467.775 175.007C467.775 173.177 466.291 171.694 464.462 171.694C462.632 171.694 461.148 173.177 461.148 175.007Z" fill="#172429"/>
<path d="M413.462 224.366C413.462 226.196 414.946 227.68 416.776 227.68C418.605 227.68 420.089 226.196 420.089 224.366C420.089 222.536 418.605 221.052 416.776 221.052C414.946 221.052 413.462 222.536 413.462 224.366Z" fill="#172429"/>
<path d="M398.944 192.426C398.944 194.256 400.427 195.74 402.257 195.74C404.087 195.74 405.57 194.256 405.57 192.426C405.57 190.596 404.087 189.113 402.257 189.113C400.427 189.113 398.944 190.596 398.944 192.426Z" fill="#172429"/>
<path d="M495.984 272.068C495.984 273.898 497.467 275.381 499.297 275.381C501.127 275.381 502.611 273.898 502.611 272.068C502.611 270.238 501.127 268.754 499.297 268.754C497.467 268.754 495.984 270.238 495.984 272.068Z" fill="#172429"/>
<path d="M476.909 295.285C476.909 297.115 478.393 298.599 480.223 298.599C482.053 298.599 483.536 297.115 483.536 295.285C483.536 293.455 482.053 291.972 480.223 291.972C478.393 291.972 476.909 293.455 476.909 295.285Z" fill="#172429"/>
<path d="M447.883 319.343C447.883 321.173 449.367 322.657 451.197 322.657C453.027 322.657 454.51 321.173 454.51 319.343C454.51 317.513 453.027 316.03 451.197 316.03C449.367 316.03 447.883 317.513 447.883 319.343Z" fill="#172429"/>
<path d="M470.271 371.601C470.271 373.431 471.755 374.914 473.585 374.914C475.415 374.914 476.898 373.431 476.898 371.601C476.898 369.771 475.415 368.287 473.585 368.287C471.755 368.287 470.271 369.771 470.271 371.601Z" fill="#172429"/>
<path d="M441.246 413.077C441.246 414.907 442.729 416.391 444.559 416.391C446.389 416.391 447.872 414.907 447.872 413.077C447.872 411.247 446.389 409.764 444.559 409.764C442.729 409.764 441.246 411.247 441.246 413.077Z" fill="#172429"/>
<path d="M441.246 350.028C441.246 351.858 442.729 353.341 444.559 353.341C446.389 353.341 447.872 351.858 447.872 350.028C447.872 348.198 446.389 346.714 444.559 346.714C442.729 346.714 441.246 348.198 441.246 350.028Z" fill="#172429"/>
<path d="M422.171 361.648C422.171 363.478 423.655 364.962 425.484 364.962C427.314 364.962 428.798 363.478 428.798 361.648C428.798 359.818 427.314 358.335 425.484 358.335C423.655 358.335 422.171 359.818 422.171 361.648Z" fill="#172429"/>
<path d="M359.136 306.906C359.136 308.736 360.62 310.219 362.45 310.219C364.28 310.219 365.763 308.736 365.763 306.906C365.763 305.076 364.28 303.592 362.45 303.592C360.62 303.592 359.136 305.076 359.136 306.906Z" fill="#172429"/>
<path d="M380.697 335.934C380.697 337.764 382.181 339.247 384.011 339.247C385.84 339.247 387.324 337.764 387.324 335.934C387.324 334.104 385.84 332.62 384.011 332.62C382.181 332.62 380.697 334.104 380.697 335.934Z" fill="#172429"/>
<path d="M433.779 434.314C433.779 436.144 435.263 437.627 437.093 437.627C438.922 437.627 440.406 436.144 440.406 434.314C440.406 432.484 438.922 431 437.093 431C435.263 431 433.779 432.484 433.779 434.314Z" fill="#172429"/>
<path d="M392.305 432.314C392.305 434.144 393.789 435.627 395.619 435.627C397.448 435.627 398.932 434.144 398.932 432.314C398.932 430.484 397.448 429 395.619 429C393.789 429 392.305 430.484 392.305 432.314Z" fill="#172429"/>
<path d="M71.3781 436.314C71.3781 438.144 72.8615 439.627 74.6914 439.627C76.5213 439.627 78.0047 438.144 78.0047 436.314C78.0047 434.484 76.5213 433 74.6914 433C72.8615 433 71.3781 434.484 71.3781 436.314Z" fill="#172429"/>
<path d="M330.927 362.477C330.927 364.307 332.411 365.79 334.241 365.79C336.07 365.79 337.554 364.307 337.554 362.477C337.554 360.647 336.07 359.163 334.241 359.163C332.411 359.163 330.927 360.647 330.927 362.477Z" fill="#172429"/>
<path d="M10 357.314C10 359.144 11.4834 360.627 13.3133 360.627C15.1432 360.627 16.6266 359.144 16.6266 357.314C16.6266 355.483 15.1432 354 13.3133 354C11.4834 354 10 355.483 10 357.314Z" fill="#172429"/>
<path d="M374.058 365.79C374.058 367.62 375.541 369.104 377.371 369.104C379.201 369.104 380.684 367.62 380.684 365.79C380.684 363.96 379.201 362.477 377.371 362.477C375.541 362.477 374.058 363.96 374.058 365.79Z" fill="#172429"/>
<path d="M330.927 433.314C330.927 435.144 332.411 436.627 334.241 436.627C336.07 436.627 337.554 435.144 337.554 433.314C337.554 431.484 336.07 430 334.241 430C332.411 430 330.927 431.484 330.927 433.314Z" fill="#172429"/>
<path d="M321.804 286.99C321.804 288.82 323.288 290.304 325.117 290.304C326.947 290.304 328.431 288.82 328.431 286.99C328.431 285.16 326.947 283.677 325.117 283.677C323.288 283.677 321.804 285.16 321.804 286.99Z" fill="#172429"/>
<path d="M252.133 295.285C252.133 297.115 253.616 298.599 255.446 298.599C257.276 298.599 258.759 297.115 258.759 295.285C258.759 293.455 257.276 291.972 255.446 291.972C253.616 291.972 252.133 293.455 252.133 295.285Z" fill="#172429"/>
<path d="M281.998 372.314C281.998 374.144 283.482 375.627 285.312 375.627C287.142 375.627 288.625 374.144 288.625 372.314C288.625 370.484 287.142 369 285.312 369C283.482 369 281.998 370.484 281.998 372.314Z" fill="#172429"/>
<path d="M296.92 262.104C296.92 263.934 298.403 265.418 300.233 265.418C302.063 265.418 303.546 263.934 303.546 262.104C303.546 260.274 302.063 258.791 300.233 258.791C298.403 258.791 296.92 260.274 296.92 262.104Z" fill="#172429"/>
<path d="M308.539 240.543C308.539 242.373 310.023 243.856 311.853 243.856C313.683 243.856 315.166 242.373 315.166 240.543C315.166 238.713 313.683 237.229 311.853 237.229C310.023 237.229 308.539 238.713 308.539 240.543Z" fill="#172429"/>
<path d="M330.099 242.199C330.099 244.029 331.582 245.513 333.412 245.513C335.242 245.513 336.725 244.029 336.725 242.199C336.725 240.369 335.242 238.886 333.412 238.886C331.582 238.886 330.099 240.369 330.099 242.199Z" fill="#172429"/>
<path d="M414.705 175.007C414.705 176.837 416.188 178.321 418.018 178.321C419.848 178.321 421.331 176.837 421.331 175.007C421.331 173.177 419.848 171.694 418.018 171.694C416.188 171.694 414.705 173.177 414.705 175.007Z" fill="#172429"/>
<path d="M461.148 52.2456C461.148 54.0756 462.632 55.5591 464.462 55.5591C466.291 55.5591 467.775 54.0756 467.775 52.2456C467.775 50.4156 466.291 48.9321 464.462 48.9321C462.632 48.9321 461.148 50.4156 461.148 52.2456Z" fill="#172429"/>
<path d="M398.115 150.133C398.115 151.963 399.599 153.446 401.428 153.446C403.258 153.446 404.742 151.963 404.742 150.133C404.742 148.303 403.258 146.819 401.428 146.819C399.599 146.819 398.115 148.303 398.115 150.133Z" fill="#172429"/>
<path d="M418.846 26.5426C418.846 28.3726 420.33 29.8561 422.16 29.8561C423.99 29.8561 425.473 28.3726 425.473 26.5426C425.473 24.7126 423.99 23.2291 422.16 23.2291C420.33 23.2291 418.846 24.7126 418.846 26.5426Z" fill="#172429"/>
<path d="M362.45 93.7222C362.45 95.5522 363.933 97.0358 365.763 97.0358C367.593 97.0358 369.076 95.5522 369.076 93.7222C369.076 91.8922 367.593 90.4087 365.763 90.4087C363.933 90.4087 362.45 91.8922 362.45 93.7222Z" fill="#172429"/>
<path d="M362.45 135.199C362.45 137.029 363.933 138.512 365.763 138.512C367.593 138.512 369.076 137.029 369.076 135.199C369.076 133.369 367.593 131.885 365.763 131.885C363.933 131.885 362.45 133.369 362.45 135.199Z" fill="#172429"/>
<path d="M265.409 84.5985C265.409 86.4285 266.892 87.9121 268.722 87.9121C270.552 87.9121 272.036 86.4285 272.036 84.5985C272.036 82.7685 270.552 81.285 268.722 81.285C266.892 81.285 265.409 82.7685 265.409 84.5985Z" fill="#172429"/>
<path d="M283.655 171.694C283.655 173.524 285.139 175.007 286.968 175.007C288.798 175.007 290.282 173.524 290.282 171.694C290.282 169.864 288.798 168.38 286.968 168.38C285.139 168.38 283.655 169.864 283.655 171.694Z" fill="#172429"/>
<path d="M310.196 83.7701C310.196 85.6002 311.68 87.0837 313.509 87.0837C315.339 87.0837 316.823 85.6002 316.823 83.7701C316.823 81.9401 315.339 80.4566 313.509 80.4566C311.68 80.4566 310.196 81.9401 310.196 83.7701Z" fill="#172429"/>
<path d="M330.341 96.6216L329.029 96.6216L329.029 52.9342L319.492 42.9711L319.492 13.6796L320.803 13.6796L320.803 42.4447L330.341 52.4078L330.341 96.6216Z" fill="#4AAFFF"/>
<path d="M41.0392 99.9998L39.7094 99.9998L39.7094 51.0146L30.0392 39.8432L30.0392 6.99976L31.369 6.99976L31.369 39.253L41.0392 50.4244L41.0392 99.9998Z" fill="#4AAFFF"/>
<path d="M369.732 61.2314L369.534 61.4248L353.982 76.5803L353.982 107.336L330.068 124.537L329.302 123.472L352.671 106.663L352.671 76.0264L368.421 60.6781L368.421 26.1169L369.732 26.1169L369.732 61.2314Z" fill="#4AAFFF"/>
<path d="M352.728 159.114L352.536 159.305L330.785 181.059L308.528 181.059L308.528 179.747L330.242 179.747L351.417 158.57L351.417 131.459L352.728 131.459L352.728 159.114Z" fill="#4AAFFF"/>
<path d="M416.189 57.0905L402.498 70.3677L402.498 87.7812L380.525 109.756L380.525 130.217L379.213 130.217L379.213 109.213L401.187 87.2381L401.187 69.8131L414.877 56.5359L414.877 36.0806L416.189 36.0806L416.189 57.0905Z" fill="#4AAFFF"/>
<path d="M376.285 135.192L376.285 173.344L349.582 200.049L68.0104 200.049L47.7382 179.775L47.7382 156.753L31.7477 140.773L33.1386 139.382L49.7055 155.938L49.7055 178.961L68.8256 198.082L348.768 198.082L374.318 172.529L374.318 134.378L393.681 115.013L395.072 116.404L376.285 135.192Z" fill="#4AAFFF"/>
<path d="M45.5567 204.925L31.4636 190.819L31.2715 190.627L31.2715 169.066L18.8236 156.617L18.8236 118.194L20.1351 118.194L20.1351 156.074L32.583 168.523L32.583 190.084L46.4839 203.997L45.5567 204.925Z" fill="#FFA729"/>
<path d="M112.733 167.73L98.6404 153.625L98.4483 153.433L98.4483 131.872L86.0004 119.423L86.0004 80.9999L87.3119 80.9999L87.3119 118.88L99.7598 131.329L99.7598 152.89L113.661 166.803L112.733 167.73Z" fill="#FFA729"/>
<path d="M18.6015 181.281L4.09413 166.761L5.02205 165.834L19.5288 180.354L18.6015 181.281Z" fill="#4AAFFF"/>
<path d="M60.7807 190.77L59.4692 190.77L59.4692 133.399L39.758 113.676L40.6859 112.749L60.5886 132.665L60.7807 132.856L60.7807 190.77Z" fill="#4AAFFF"/>
<path d="M309.374 179.42L328.287 160.506L328.287 124.826L311.985 108.523L311.698 108.235L311.698 72.5692L297.881 58.7515L297.593 58.4633L297.593 2.48492L299.56 2.48492L299.56 57.6481L313.665 71.754L313.665 107.42L330.254 124.011L330.254 161.321L310.19 181.387L82.5726 181.387L82.5726 137.47L69.5035 124.412L69.5035 103.253L58.3095 92.0588L58.3095 50.1747L60.2768 50.1747L60.2768 91.2436L71.4708 102.439L71.4708 123.597L84.5399 136.655L84.5399 179.42L309.374 179.42Z" fill="#4AAFFF"/>
<path d="M33.0392 215L21.5389 215L14.8701 205.33L4.03918 205.33L4.03918 204L15.2502 204L21.919 213.67L33.0392 213.67L33.0392 215Z" fill="#4AAFFF"/>
<path d="M6.04176 240.4L6.04176 267.499L4.73024 267.499L4.73024 239.857L18.1874 226.387L19.1147 227.315L6.04176 240.4Z" fill="#4AAFFF"/>
<path d="M427.555 200.152L390.332 200.152L369.359 221.126L369.071 221.414L52.4438 221.414L25.8567 248.002L25.8567 275.788L6.08017 295.566L4.68859 294.174L23.8894 274.973L23.8894 247.187L51.6279 219.447L368.256 219.447L389.229 198.473L389.516 198.185L427.555 198.185L427.555 200.152Z" fill="#4AAFFF"/>
<path d="M442.73 83.6226L426.554 100.214L426.554 124.276L377.008 173.814L376.081 172.887L425.243 123.733L425.243 99.6797L441.418 83.0891L441.418 52.6713L442.73 52.6713L442.73 83.6226Z" fill="#4AAFFF"/>
<path d="M477.979 139.199L451.883 165.297L424.514 165.297L402.942 186.869L362.048 186.869L362.048 185.558L402.399 185.558L423.97 163.985L451.339 163.985L476.668 138.655L476.668 83.3559L477.979 83.3559L477.979 139.199Z" fill="#4AAFFF"/>
<path d="M477.324 186.455L437.506 186.455L437.506 185.144L477.324 185.144L477.324 186.455Z" fill="#4AAFFF"/>
<path d="M501.97 12.7275V52.545H500.658V12.7275H501.97Z" fill="#4AAFFF"/>
<path d="M441.716 17.9694L401.898 17.9694L401.898 16.6578L441.716 16.6578L441.716 17.9694Z" fill="#4AAFFF"/>
<path d="M76.3118 24V63.8175H75.0003V24H76.3118Z" fill="#4AAFFF"/>
<path d="M147 271V292H146V271H147Z" fill="#4AAFFF"/>
<path d="M320 391V432H319V391H320Z" fill="#4AAFFF"/>
<path d="M133.312 8.99994V48.8175H132V8.99994H133.312Z" fill="#FFA729"/>
<path d="M60.0022 8.99994V34.9999H59.0022V8.99994H60.0022Z" fill="#FFA729"/>
<path d="M490.223 223.173L490.032 223.365L446.501 223.365L427.31 243.992L426.35 243.098L445.93 222.053L489.489 222.053L510.453 201.098L511.381 202.026L490.223 223.173Z" fill="#4AAFFF"/>
<path d="M503.823 265.901L481.201 244.098L414.847 244.098L380.015 209.274L380.942 208.347L415.39 242.786L481.73 242.786L481.92 242.97L504.734 264.956L503.823 265.901Z" fill="#4AAFFF"/>
<path d="M488.932 284.953L452.789 284.953L433.093 265.256L415.261 265.256L390.791 240.784L368.663 240.784L368.663 239.473L391.334 239.473L415.805 263.945L433.637 263.945L453.333 283.642L488.932 283.642L488.932 284.953Z" fill="#4AAFFF"/>
<path d="M482.949 347.957L481.638 347.957L481.638 322.514L461.927 302.802L462.855 301.875L482.949 321.971L482.949 347.957Z" fill="#4AAFFF"/>
<path d="M30.0717 389.728L31.3832 389.728L31.3832 415.171L51.0937 434.883L50.1665 435.81L30.0717 415.714L30.0717 389.728Z" fill="#4AAFFF"/>
<path d="M504.458 389.728L503.146 389.728L503.146 415.171L483.436 434.883L484.363 435.81L504.458 415.714L504.458 389.728Z" fill="#4AAFFF"/>
<path d="M477.042 383.076L461.407 367.44L461.407 327.623L405.58 270.14L379.029 270.14L379.029 268.173L406.411 268.173L463.374 326.825L463.374 366.625L478.433 381.686L477.042 383.076Z" fill="#FFA729"/>
<path d="M454.229 407.548L429.884 383.203L429.884 334.27L378.333 282.715L379.725 281.324L431.564 333.167L431.852 333.455L431.852 382.387L455.62 406.157L454.229 407.548Z" fill="#FFA729"/>
<path d="M405.3 345.339L378.045 318.093L378.045 269.563L348.146 239.662L67.9967 239.662L47.1059 260.543L47.1059 279.516L46.8177 279.803L37.6486 288.985L36.2571 287.595L45.1386 278.702L45.1386 259.728L67.1821 237.695L348.961 237.695L380.013 268.749L380.013 317.278L406.691 343.947L405.3 345.339Z" fill="#FFA729"/>
<path d="M13.7309 332.244L12.803 331.317L32.2919 311.827L33.2192 312.754L13.7309 332.244Z" fill="#4AAFFF"/>
<path d="M45.4336 303.852L45.4336 339.933L31.7702 353.609L31.3059 353.146L30.8423 352.682L44.122 339.391L44.122 303.309L67.9561 279.474L68.8834 280.401L45.4336 303.852Z" fill="#4AAFFF"/>
<path d="M371 390.563L349.609 408.982L349.609 436L347.638 436L347.638 408.279L347.927 408.031L369.029 389.86L369.029 353.716L348.676 336.181L348.676 290.392L311.866 258.697L84.7604 258.697L84.7604 298.262L68.9709 311.858L68.9709 365.878L67.0001 365.878L67.0001 311.155L82.7896 297.559L82.7896 257L312.682 257L350.647 289.69L350.647 335.478L371 353.013L371 390.563Z" fill="#4AAFFF"/>
<path d="M330.341 354.182L329.029 354.182L329.029 310.905L276.139 258.012L277.067 257.084L330.341 310.362L330.341 354.182Z" fill="#4AAFFF"/>
<path d="M421.464 435.334L393.393 407.26L393.393 365.783L368.796 341.185L370.188 339.795L395.36 364.969L395.36 406.446L422.855 433.943L421.464 435.334Z" fill="#FFA729"/>
<path d="M361.986 276.673L341.658 256.355L342.585 255.427L362.913 275.746L361.986 276.673Z" fill="#4AAFFF"/>
<path d="M274.764 294.853L254.436 274.535L255.363 273.607L275.691 293.926L274.764 294.853Z" fill="#4AAFFF"/>
<path d="M295.263 3.31335C295.263 5.14337 296.747 6.62689 298.576 6.62689C300.406 6.62689 301.89 5.14337 301.89 3.31335C301.89 1.48334 300.406 -0.00018317 298.576 -0.00018325C296.747 -0.00018333 295.263 1.48334 295.263 3.31335Z" fill="#4AAFFF"/>
<path d="M316.834 14.0938C316.834 15.9238 318.318 17.4073 320.148 17.4073C321.977 17.4073 323.461 15.9238 323.461 14.0938C323.461 12.2638 321.977 10.7803 320.148 10.7803C318.318 10.7803 316.834 12.2638 316.834 14.0938Z" fill="#4AAFFF"/>
<path d="M27.8429 4.31329C27.8429 6.14331 29.3263 7.62683 31.1562 7.62683C32.9861 7.62683 34.4695 6.14331 34.4695 4.31329C34.4695 2.48328 32.9861 0.999756 31.1562 0.999756C29.3263 0.999756 27.8429 2.48328 27.8429 4.31329Z" fill="#4AAFFF"/>
<path d="M56.0022 9.31348C56.0022 11.1435 57.4856 12.627 59.3155 12.627C61.1454 12.627 62.6288 11.1435 62.6288 9.31348C62.6288 7.48346 61.1454 5.99994 59.3155 5.99994C57.4856 5.99994 56.0022 7.48346 56.0022 9.31348Z" fill="#FFA729"/>
<path d="M56.0022 37.3135C56.0022 39.1436 57.4856 40.6271 59.3155 40.6271C61.1454 40.6271 62.6288 39.1436 62.6288 37.3135C62.6288 35.4835 61.1454 34 59.3155 34C57.4856 34 56.0022 35.4835 56.0022 37.3135Z" fill="#FFA729"/>
<path d="M326.786 97.0473C326.786 98.8773 328.269 100.361 330.099 100.361C331.929 100.361 333.412 98.8773 333.412 97.0473C333.412 95.2173 331.929 93.7338 330.099 93.7338C328.269 93.7338 326.786 95.2173 326.786 97.0473Z" fill="#4AAFFF"/>
<path d="M19.5085 102.841L18.197 102.841L18.197 59.1539L8.65964 49.1907L8.65964 19.8993L9.97116 19.8993L9.97116 48.6643L19.5085 58.6275L19.5085 102.841Z" fill="#4AAFFF"/>
<path d="M6.00215 20.3135C6.00215 22.1435 7.48558 23.627 9.31547 23.627C11.1454 23.627 12.6288 22.1435 12.6288 20.3135C12.6288 18.4835 11.1454 16.9999 9.31547 16.9999C7.48558 16.9999 6.00215 18.4835 6.00215 20.3135Z" fill="#4AAFFF"/>
<path d="M15.9536 103.267C15.9536 105.097 17.437 106.581 19.2669 106.581C21.0968 106.581 22.5802 105.097 22.5802 103.267C22.5802 101.437 21.0968 99.9534 19.2669 99.9534C17.437 99.9534 15.9536 101.437 15.9536 103.267Z" fill="#4AAFFF"/>
<path d="M37.7943 100.891C37.7943 102.721 39.2777 104.204 41.1076 104.204C42.9375 104.204 44.4209 102.721 44.4209 100.891C44.4209 99.0605 42.9375 97.577 41.1076 97.577C39.2777 97.577 37.7943 99.0605 37.7943 100.891Z" fill="#4AAFFF"/>
<path d="M325.129 124.418C325.129 126.248 326.612 127.732 328.442 127.732C330.272 127.732 331.756 126.248 331.756 124.418C331.756 122.588 330.272 121.105 328.442 121.105C326.612 121.105 325.129 122.588 325.129 124.418Z" fill="#4AAFFF"/>
<path d="M349.173 131.045C349.173 132.875 350.657 134.359 352.487 134.359C354.317 134.359 355.8 132.875 355.8 131.045C355.8 129.215 354.317 127.732 352.487 127.732C350.657 127.732 349.173 129.215 349.173 131.045Z" fill="#4AAFFF"/>
<path d="M307.711 179.989C307.711 181.819 309.195 183.303 311.024 183.303C312.854 183.303 314.338 181.819 314.338 179.989C314.338 178.159 312.854 176.675 311.024 176.675C309.195 176.675 307.711 178.159 307.711 179.989Z" fill="#4AAFFF"/>
<path d="M98.0004 179.989C98.0004 181.819 99.4838 183.303 101.314 183.303C103.144 183.303 104.627 181.819 104.627 179.989C104.627 178.159 103.144 176.675 101.314 176.675C99.4838 176.675 98.0004 178.159 98.0004 179.989Z" fill="#4AAFFF"/>
<path d="M365.763 26.5425C365.763 28.3726 367.246 29.8561 369.076 29.8561C370.906 29.8561 372.39 28.3726 372.39 26.5425C372.39 24.7125 370.906 23.229 369.076 23.229C367.246 23.229 365.763 24.7125 365.763 26.5425Z" fill="#4AAFFF"/>
<path d="M412.22 36.4948C412.22 38.3248 413.703 39.8083 415.533 39.8083C417.363 39.8083 418.846 38.3248 418.846 36.4948C418.846 34.6647 417.363 33.1812 415.533 33.1812C413.703 33.1812 412.22 34.6647 412.22 36.4948Z" fill="#4AAFFF"/>
<path d="M391.477 115.295C391.477 117.125 392.96 118.608 394.79 118.608C396.62 118.608 398.104 117.125 398.104 115.295C398.104 113.465 396.62 111.981 394.79 111.981C392.96 111.981 391.477 113.465 391.477 115.295Z" fill="#4AAFFF"/>
<path d="M438.761 52.2456C438.761 54.0756 440.244 55.5591 442.074 55.5591C443.904 55.5591 445.387 54.0756 445.387 52.2456C445.387 50.4156 443.904 48.9321 442.074 48.9321C440.244 48.9321 438.761 50.4156 438.761 52.2456Z" fill="#4AAFFF"/>
<path d="M474.425 83.7701C474.425 85.6002 475.908 87.0837 477.738 87.0837C479.568 87.0837 481.051 85.6002 481.051 83.7701C481.051 81.9401 479.568 80.4566 477.738 80.4566C475.908 80.4566 474.425 81.9401 474.425 83.7701Z" fill="#4AAFFF"/>
<path d="M398.944 185.799C398.944 187.629 400.427 189.113 402.257 189.113C404.087 189.113 405.57 187.629 405.57 185.799C405.57 183.969 404.087 182.486 402.257 182.486C400.427 182.486 398.944 183.969 398.944 185.799Z" fill="#4AAFFF"/>
<path d="M434.608 185.799C434.608 187.629 436.091 189.113 437.921 189.113C439.751 189.113 441.234 187.629 441.234 185.799C441.234 183.969 439.751 182.486 437.921 182.486C436.091 182.486 434.608 183.969 434.608 185.799Z" fill="#4AAFFF"/>
<path d="M501.314 55.4434C503.144 55.4434 504.627 53.96 504.627 52.1301C504.627 50.3002 503.144 48.8168 501.314 48.8168C499.484 48.8168 498 50.3002 498 52.1301C498 53.96 499.484 55.4434 501.314 55.4434Z" fill="#4AAFFF"/>
<path d="M399 17.3135C399 19.1435 400.483 20.627 402.313 20.627C404.143 20.627 405.627 19.1435 405.627 17.3135C405.627 15.4835 404.143 13.9999 402.313 13.9999C400.483 13.9999 399 15.4835 399 17.3135Z" fill="#4AAFFF"/>
<path d="M424.656 199.065C424.656 200.895 426.14 202.379 427.97 202.379C429.799 202.379 431.283 200.895 431.283 199.065C431.283 197.235 429.799 195.752 427.97 195.752C426.14 195.752 424.656 197.235 424.656 199.065Z" fill="#4AAFFF"/>
<path d="M474.425 185.799C474.425 187.629 475.908 189.113 477.738 189.113C479.568 189.113 481.051 187.629 481.051 185.799C481.051 183.969 479.568 182.486 477.738 182.486C475.908 182.486 474.425 183.969 474.425 185.799Z" fill="#4AAFFF"/>
<path d="M501.314 15.6266C503.144 15.6266 504.627 14.1431 504.627 12.3132C504.627 10.4834 503.144 8.99994 501.314 8.99994C499.484 8.99994 498 10.4834 498 12.3132C498 14.1431 499.484 15.6266 501.314 15.6266Z" fill="#4AAFFF"/>
<path d="M438.817 17.3135C438.817 19.1435 440.3 20.627 442.13 20.627C443.96 20.627 445.444 19.1435 445.444 17.3135C445.444 15.4835 443.96 13.9999 442.13 13.9999C440.3 13.9999 438.817 15.4835 438.817 17.3135Z" fill="#4AAFFF"/>
<path d="M189.716 17.9694L149.898 17.9694L149.898 16.6578L189.716 16.6578L189.716 17.9694Z" fill="#4AAFFF"/>
<path d="M189.716 434.969L149.898 434.969L149.898 433.658L189.716 433.658L189.716 434.969Z" fill="#4AAFFF"/>
<path d="M147 17.3135C147 19.1435 148.483 20.627 150.313 20.627C152.143 20.627 153.627 19.1435 153.627 17.3135C153.627 15.4835 152.143 13.9999 150.313 13.9999C148.483 13.9999 147 15.4835 147 17.3135Z" fill="#4AAFFF"/>
<path d="M147 434.314C147 436.144 148.483 437.627 150.313 437.627C152.143 437.627 153.627 436.144 153.627 434.314C153.627 432.484 152.143 431 150.313 431C148.483 431 147 432.484 147 434.314Z" fill="#4AAFFF"/>
<path d="M186.817 17.3135C186.817 19.1435 188.3 20.627 190.13 20.627C191.96 20.627 193.443 19.1435 193.443 17.3135C193.443 15.4835 191.96 13.9999 190.13 13.9999C188.3 13.9999 186.817 15.4835 186.817 17.3135Z" fill="#4AAFFF"/>
<path d="M186.817 434.314C186.817 436.144 188.3 437.627 190.13 437.627C191.96 437.627 193.443 436.144 193.443 434.314C193.443 432.484 191.96 431 190.13 431C188.3 431 186.817 432.484 186.817 434.314Z" fill="#4AAFFF"/>
<path d="M454.522 159.256C454.522 161.086 456.005 162.57 457.835 162.57C459.665 162.57 461.148 161.086 461.148 159.256C461.148 157.426 459.665 155.943 457.835 155.943C456.005 155.943 454.522 157.426 454.522 159.256Z" fill="#4AAFFF"/>
<path d="M491.842 106.999C491.842 108.829 493.326 110.313 495.156 110.313C496.985 110.313 498.469 108.829 498.469 106.999C498.469 105.169 496.985 103.686 495.156 103.686C493.326 103.686 491.842 105.169 491.842 106.999Z" fill="#4AAFFF"/>
<path d="M508.018 201.136C508.018 202.966 509.501 204.45 511.331 204.45C513.161 204.45 514.644 202.966 514.644 201.136C514.644 199.306 513.161 197.823 511.331 197.823C509.501 197.823 508.018 199.306 508.018 201.136Z" fill="#4AAFFF"/>
<path d="M423.828 243.028C423.828 244.858 425.311 246.341 427.141 246.341C428.971 246.341 430.454 244.858 430.454 243.028C430.454 241.198 428.971 239.714 427.141 239.714C425.311 239.714 423.828 241.198 423.828 243.028Z" fill="#4AAFFF"/>
<path d="M500.965 265.429C500.965 267.259 502.449 268.743 504.279 268.743C506.109 268.743 507.592 267.259 507.592 265.429C507.592 263.599 506.109 262.116 504.279 262.116C502.449 262.116 500.965 263.599 500.965 265.429Z" fill="#4AAFFF"/>
<path d="M364.935 239.714C364.935 241.544 366.418 243.028 368.248 243.028C370.078 243.028 371.561 241.544 371.561 239.714C371.561 237.884 370.078 236.401 368.248 236.401C366.418 236.401 364.935 237.884 364.935 239.714Z" fill="#4AAFFF"/>
<path d="M487.689 284.505C487.689 286.335 489.173 287.818 491.002 287.818C492.832 287.818 494.316 286.335 494.316 284.505C494.316 282.675 492.832 281.191 491.002 281.191C489.173 281.191 487.689 282.675 487.689 284.505Z" fill="#4AAFFF"/>
<path d="M459.492 302.753C459.492 304.583 460.975 306.066 462.805 306.066C464.635 306.066 466.118 304.583 466.118 302.753C466.118 300.922 464.635 299.439 462.805 299.439C460.975 299.439 459.492 300.922 459.492 302.753Z" fill="#4AAFFF"/>
<path d="M53.5294 434.932C53.5294 433.102 52.046 431.619 50.2161 431.619C48.3862 431.619 46.9028 433.102 46.9028 434.932C46.9028 436.762 48.3862 438.246 50.2161 438.246C52.046 438.246 53.5294 436.762 53.5294 434.932Z" fill="#4AAFFF"/>
<path d="M481 434.932C481 433.102 482.483 431.619 484.313 431.619C486.143 431.619 487.627 433.102 487.627 434.932C487.627 436.762 486.143 438.246 484.313 438.246C482.483 438.246 481 436.762 481 434.932Z" fill="#4AAFFF"/>
<path d="M479.394 348.371C479.394 350.201 480.878 351.685 482.708 351.685C484.538 351.685 486.021 350.201 486.021 348.371C486.021 346.541 484.538 345.058 482.708 345.058C480.878 345.058 479.394 346.541 479.394 348.371Z" fill="#4AAFFF"/>
<path d="M33.6266 389.314C33.6266 387.484 32.1432 386 30.3133 386C28.4834 386 27 387.484 27 389.314C27 391.144 28.4834 392.627 30.3133 392.627C32.1432 392.627 33.6266 391.144 33.6266 389.314Z" fill="#4AAFFF"/>
<path d="M500.903 389.314C500.903 387.484 502.386 386 504.216 386C506.046 386 507.529 387.484 507.529 389.314C507.529 391.144 506.046 392.627 504.216 392.627C502.386 392.627 500.903 391.144 500.903 389.314Z" fill="#4AAFFF"/>
<path d="M132.072 96.5181L133.384 96.5181L133.384 71.0748L153.094 51.363L152.167 50.4357L132.072 70.5317L132.072 96.5181Z" fill="#FFA729"/>
<path d="M342.072 51.5181L343.383 51.5181L343.383 26.0747L363.094 6.36289L362.167 5.43561L342.072 25.5317L342.072 51.5181Z" fill="#FFA729"/>
<path d="M455.072 62.5181L456.383 62.5181L456.383 37.0747L476.094 17.3629L475.167 16.4356L455.072 36.5317L455.072 62.5181Z" fill="#FFA729"/>
<path d="M381.072 81.5181L382.383 81.5181L382.383 56.0747L402.094 36.3629L401.167 35.4356L381.072 55.5317L381.072 81.5181Z" fill="#FFA729"/>
<path d="M155.53 51.3135C155.53 53.1436 154.046 54.6271 152.216 54.6271C150.387 54.6271 148.903 53.1436 148.903 51.3135C148.903 49.4835 150.387 48 152.216 48C154.046 48 155.53 49.4835 155.53 51.3135Z" fill="#FFA729"/>
<path d="M365.529 6.31348C365.529 8.1435 364.046 9.62699 362.216 9.62699C360.386 9.62699 358.903 8.1435 358.903 6.31348C358.903 4.48347 360.386 2.99994 362.216 2.99994C364.046 2.99994 365.529 4.48347 365.529 6.31348Z" fill="#FFA729"/>
<path d="M478.53 17.3135C478.53 19.1435 477.046 20.627 475.216 20.627C473.386 20.627 471.903 19.1435 471.903 17.3135C471.903 15.4835 473.386 13.9999 475.216 13.9999C477.046 13.9999 478.53 15.4835 478.53 17.3135Z" fill="#FFA729"/>
<path d="M404.529 36.3135C404.529 38.1435 403.046 39.627 401.216 39.627C399.386 39.627 397.903 38.1435 397.903 36.3135C397.903 34.4835 399.386 32.9999 401.216 32.9999C403.046 32.9999 404.529 34.4835 404.529 36.3135Z" fill="#FFA729"/>
<path d="M135.627 96.9321C135.627 98.7622 134.144 100.246 132.314 100.246C130.484 100.246 129 98.7622 129 96.9321C129 95.1021 130.484 93.6186 132.314 93.6186C134.144 93.6186 135.627 95.1021 135.627 96.9321Z" fill="#FFA729"/>
<path d="M345.627 51.9321C345.627 53.7621 344.143 55.2456 342.313 55.2456C340.483 55.2456 339 53.7621 339 51.9321C339 50.1021 340.483 48.6185 342.313 48.6185C344.143 48.6185 345.627 50.1021 345.627 51.9321Z" fill="#FFA729"/>
<path d="M458.627 62.9321C458.627 64.7621 457.143 66.2456 455.313 66.2456C453.483 66.2456 452 64.7621 452 62.9321C452 61.1021 453.483 59.6185 455.313 59.6185C457.143 59.6185 458.627 61.1021 458.627 62.9321Z" fill="#FFA729"/>
<path d="M384.627 81.9321C384.627 83.7621 383.143 85.2456 381.313 85.2456C379.483 85.2456 378 83.7621 378 81.9321C378 80.1021 379.483 78.6185 381.313 78.6185C383.143 78.6185 384.627 80.1021 384.627 81.9321Z" fill="#FFA729"/>
<path d="M345.86 295.285C345.86 297.115 347.344 298.599 349.174 298.599C351.003 298.599 352.487 297.115 352.487 295.285C352.487 293.455 351.003 291.972 349.174 291.972C347.344 291.972 345.86 293.455 345.86 295.285Z" fill="#4AAFFF"/>
<path d="M359.136 276.21C359.136 278.04 360.62 279.523 362.45 279.523C364.28 279.523 365.763 278.04 365.763 276.21C365.763 274.38 364.28 272.896 362.45 272.896C360.62 272.896 359.136 274.38 359.136 276.21Z" fill="#4AAFFF"/>
<path d="M271.914 294.39C271.914 296.22 273.398 297.703 275.228 297.703C277.058 297.703 278.541 296.22 278.541 294.39C278.541 292.56 277.058 291.076 275.228 291.076C273.398 291.076 271.914 292.56 271.914 294.39Z" fill="#4AAFFF"/>
<path d="M403.097 345.058C403.097 346.888 404.58 348.371 406.41 348.371C408.24 348.371 409.723 346.888 409.723 345.058C409.723 343.228 408.24 341.744 406.41 341.744C404.58 341.744 403.097 343.228 403.097 345.058Z" fill="#FFA729"/>
<path d="M427.969 334.277C427.969 336.107 429.453 337.591 431.283 337.591C433.113 337.591 434.596 336.107 434.596 334.277C434.596 332.447 433.113 330.964 431.283 330.964C429.453 330.964 427.969 332.447 427.969 334.277Z" fill="#FFA729"/>
<path d="M375.715 269.571C375.715 271.401 377.198 272.885 379.028 272.885C380.858 272.885 382.341 271.401 382.341 269.571C382.341 267.741 380.858 266.258 379.028 266.258C377.198 266.258 375.715 267.741 375.715 269.571Z" fill="#FFA729"/>
<path d="M474.424 382.381C474.424 384.211 475.908 385.695 477.738 385.695C479.568 385.695 481.051 384.211 481.051 382.381C481.051 380.551 479.568 379.068 477.738 379.068C475.908 379.068 474.424 380.551 474.424 382.381Z" fill="#FFA729"/>
<path d="M452.025 407.267C452.025 409.097 453.509 410.581 455.338 410.581C457.168 410.581 458.652 409.097 458.652 407.267C458.652 405.437 457.168 403.954 455.338 403.954C453.509 403.954 452.025 405.437 452.025 407.267Z" fill="#FFA729"/>
<path d="M418.846 434.639C418.846 436.469 420.33 437.952 422.16 437.952C423.99 437.952 425.473 436.469 425.473 434.639C425.473 432.809 423.99 431.325 422.16 431.325C420.33 431.325 418.846 432.809 418.846 434.639Z" fill="#FFA729"/>
<path d="M365.763 341.744C365.763 343.574 367.246 345.058 369.076 345.058C370.906 345.058 372.39 343.574 372.39 341.744C372.39 339.914 370.906 338.431 369.076 338.431C367.246 338.431 365.763 339.914 365.763 341.744Z" fill="#FFA729"/>
<path d="M483.7 51.6148L455.628 79.6882L455.628 121.165L431.031 145.763L432.423 147.154L457.595 121.98L457.595 80.5028L485.091 53.0057L483.7 51.6148Z" fill="#FFA729"/>
<path d="M481.082 52.3135C481.082 50.4835 482.565 49 484.395 49C486.225 49 487.708 50.4835 487.708 52.3135C487.708 54.1435 486.225 55.627 484.395 55.627C482.565 55.627 481.082 54.1435 481.082 52.3135Z" fill="#FFA729"/>
<path d="M428 145.205C428 143.375 429.483 141.891 431.313 141.891C433.143 141.891 434.627 143.375 434.627 145.205C434.627 147.035 433.143 148.518 431.313 148.518C429.483 148.518 428 147.035 428 145.205Z" fill="#FFA729"/>
<path d="M33.9981 287.819C33.9981 289.649 35.4815 291.132 37.3114 291.132C39.1413 291.132 40.6247 289.649 40.6247 287.819C40.6247 285.989 39.1413 284.505 37.3114 284.505C35.4815 284.505 33.9981 285.989 33.9981 287.819Z" fill="#FFA729"/>
<path d="M325.129 354.181C325.129 356.011 326.612 357.495 328.442 357.495C330.272 357.495 331.756 356.011 331.756 354.181C331.756 352.351 330.272 350.868 328.442 350.868C326.612 350.868 325.129 352.351 325.129 354.181Z" fill="#4AAFFF"/>
<path d="M273.704 257.962C273.704 259.792 275.187 261.275 277.017 261.275C278.847 261.275 280.33 259.792 280.33 257.962C280.33 256.132 278.847 254.648 277.017 254.648C275.187 254.648 273.704 256.132 273.704 257.962Z" fill="#4AAFFF"/>
<path d="M64.6922 364.314C64.6922 366.144 66.1756 367.627 68.0055 367.627C69.8353 367.627 71.3188 366.144 71.3188 364.314C71.3188 362.484 69.8353 361 68.0055 361C66.1756 361 64.6922 362.484 64.6922 364.314Z" fill="#4AAFFF"/>
<path d="M65.5205 279.523C65.5205 281.353 67.0039 282.837 68.8338 282.837C70.6637 282.837 72.1471 281.353 72.1471 279.523C72.1471 277.693 70.6637 276.21 68.8338 276.21C67.0039 276.21 65.5205 277.693 65.5205 279.523Z" fill="#4AAFFF"/>
<path d="M28.1998 353.353C28.1998 355.183 29.6832 356.666 31.5131 356.666C33.343 356.666 34.8264 355.183 34.8264 353.353C34.8264 351.523 33.343 350.039 31.5131 350.039C29.6832 350.039 28.1998 351.523 28.1998 353.353Z" fill="#4AAFFF"/>
<path d="M29.8563 311.876C29.8563 313.706 31.3398 315.19 33.1696 315.19C34.9995 315.19 36.483 313.706 36.483 311.876C36.483 310.046 34.9995 308.563 33.1696 308.563C31.3398 308.563 29.8563 310.046 29.8563 311.876Z" fill="#4AAFFF"/>
<path d="M9.95355 331.78C9.95355 333.61 11.437 335.094 13.2669 335.094C15.0968 335.094 16.5802 333.61 16.5802 331.78C16.5802 329.95 15.0968 328.467 13.2669 328.467C11.437 328.467 9.95356 329.95 9.95355 331.78Z" fill="#4AAFFF"/>
<path d="M1.65879 294.457C1.65879 296.287 3.14222 297.771 4.97211 297.771C6.802 297.771 8.28539 296.287 8.28539 294.457C8.28539 292.627 6.802 291.144 4.97211 291.144C3.14222 291.144 1.65879 292.627 1.65879 294.457Z" fill="#4AAFFF"/>
<path d="M1.65879 266.258C1.65879 268.088 3.14222 269.571 4.97211 269.571C6.802 269.571 8.28539 268.088 8.28539 266.258C8.28539 264.427 6.802 262.944 4.97211 262.944C3.14222 262.944 1.65879 264.427 1.65879 266.258Z" fill="#4AAFFF"/>
<path d="M15.7519 226.437C15.7519 228.267 17.2354 229.75 19.0653 229.751C20.8951 229.751 22.3785 228.267 22.3785 226.437C22.3785 224.607 20.8951 223.123 19.0653 223.123C17.2354 223.123 15.7519 224.607 15.7519 226.437Z" fill="#4AAFFF"/>
<path d="M29.0281 214C29.0281 215.83 30.5114 217.313 32.3413 217.313C34.1712 217.313 35.6547 215.83 35.6547 214C35.6547 212.17 34.1712 210.686 32.3413 210.686C30.5114 210.686 29.0281 212.17 29.0281 214Z" fill="#4AAFFF"/>
<path d="M0.0391949 204.313C0.0391948 206.143 1.52262 207.627 3.35251 207.627C5.1824 207.627 6.66582 206.143 6.66582 204.313C6.66582 202.483 5.1824 201 3.35251 201C1.52262 201 0.039195 202.483 0.0391949 204.313Z" fill="#4AAFFF"/>
<path d="M15.7519 180.817C15.7519 182.647 17.2354 184.131 19.0653 184.131C20.8951 184.131 22.3785 182.647 22.3785 180.817C22.3785 178.987 20.8951 177.504 19.0653 177.504C17.2354 177.504 15.7519 178.987 15.7519 180.817Z" fill="#4AAFFF"/>
<path d="M0.00220761 165.055C0.00220753 166.885 1.48563 168.368 3.31552 168.368C5.14541 168.368 6.62884 166.885 6.62884 165.055C6.62884 163.225 5.14541 161.741 3.31552 161.741C1.48563 161.741 0.00220769 163.225 0.00220761 165.055Z" fill="#4AAFFF"/>
<path d="M43.1212 204.047C43.1212 205.877 44.6046 207.361 46.4345 207.361C48.2644 207.361 49.7478 205.877 49.7478 204.047C49.7478 202.217 48.2644 200.734 46.4345 200.734C44.6046 200.734 43.1212 202.217 43.1212 204.047Z" fill="#FFA729"/>
<path d="M16.5802 117.78C16.5802 119.61 18.0637 121.093 19.8936 121.093C21.7235 121.093 23.2068 119.61 23.2068 117.78C23.2068 115.95 21.7235 114.466 19.8936 114.466C18.0637 114.466 16.5802 115.95 16.5802 117.78Z" fill="#FFA729"/>
<path d="M29.0281 140.169C29.0281 141.999 30.5115 143.482 32.3413 143.482C34.1712 143.482 35.6547 141.999 35.6547 140.169C35.6547 138.339 34.1712 136.855 32.3413 136.855C30.5115 136.855 29.0281 138.339 29.0281 140.169Z" fill="#4AAFFF"/>
<path d="M37.737 114.052C37.737 115.882 39.2204 117.366 41.0503 117.366C42.8802 117.366 44.3636 115.882 44.3636 114.052C44.3636 112.222 42.8802 110.739 41.0503 110.739C39.2204 110.739 37.737 112.222 37.737 114.052Z" fill="#4AAFFF"/>
<path d="M56.3977 50.5888C56.3977 52.4188 57.8811 53.9023 59.711 53.9023C61.5409 53.9023 63.0244 52.4188 63.0244 50.5888C63.0244 48.7588 61.5409 47.2753 59.711 47.2753C57.8811 47.2753 56.3977 48.7588 56.3977 50.5888Z" fill="#4AAFFF"/>
<path d="M72.0004 65.3135C72.0004 67.1435 73.4838 68.627 75.3137 68.627C77.1436 68.627 78.627 67.1435 78.627 65.3135C78.627 63.4835 77.1436 61.9999 75.3137 61.9999C73.4838 61.9999 72.0004 63.4835 72.0004 65.3135Z" fill="#4AAFFF"/>
<path d="M143 293.314C143 295.144 144.483 296.627 146.313 296.627C148.143 296.627 149.627 295.144 149.627 293.314C149.627 291.484 148.143 290 146.313 290C144.483 290 143 291.484 143 293.314Z" fill="#4AAFFF"/>
<path d="M316 433.314C316 435.144 317.484 436.627 319.313 436.627C321.143 436.627 322.627 435.144 322.627 433.314C322.627 431.484 321.143 430 319.313 430C317.484 430 316 431.484 316 433.314Z" fill="#4AAFFF"/>
<path d="M129 50.3135C129 52.1435 130.484 53.627 132.314 53.627C134.144 53.627 135.627 52.1435 135.627 50.3135C135.627 48.4835 134.144 46.9999 132.314 46.9999C130.484 46.9999 129 48.4835 129 50.3135Z" fill="#FFA729"/>
<path d="M72.0004 23.3135C72.0004 25.1436 73.4838 26.6271 75.3137 26.6271C77.1436 26.6271 78.627 25.1436 78.627 23.3135C78.627 21.4835 77.1436 20 75.3137 20C73.4838 20 72.0004 21.4835 72.0004 23.3135Z" fill="#4AAFFF"/>
<path d="M143 270.314C143 272.144 144.483 273.627 146.313 273.627C148.143 273.627 149.627 272.144 149.627 270.314C149.627 268.484 148.143 267 146.313 267C144.483 267 143 268.484 143 270.314Z" fill="#4AAFFF"/>
<path d="M316 390.314C316 392.144 317.484 393.627 319.313 393.627C321.143 393.627 322.627 392.144 322.627 390.314C322.627 388.484 321.143 387 319.313 387C317.484 387 316 388.484 316 390.314Z" fill="#4AAFFF"/>
<path d="M129 8.31348C129 10.1435 130.484 11.627 132.314 11.627C134.144 11.627 135.627 10.1435 135.627 8.31348C135.627 6.48346 134.144 4.99994 132.314 4.99994C130.484 4.99994 129 6.48346 129 8.31348Z" fill="#FFA729"/>
<path d="M339.222 257.133C339.222 258.963 340.705 260.447 342.535 260.447C344.365 260.447 345.849 258.963 345.849 257.133C345.849 255.303 344.365 253.82 342.535 253.82C340.705 253.82 339.222 255.303 339.222 257.133Z" fill="#4AAFFF"/>
<path d="M252 275.314C252 277.144 253.483 278.627 255.313 278.627C257.143 278.627 258.627 277.144 258.627 275.314C258.627 273.484 257.143 272 255.313 272C253.483 272 252 273.484 252 275.314Z" fill="#4AAFFF"/>
<path d="M345.032 433.314C345.032 435.144 346.515 436.627 348.345 436.627C350.175 436.627 351.659 435.144 351.659 433.314C351.659 431.484 350.175 430 348.345 430C346.515 430 345.032 431.484 345.032 433.314Z" fill="#4AAFFF"/>
<path d="M373.229 172.522C373.229 174.352 374.713 175.836 376.543 175.836C378.373 175.836 379.856 174.352 379.856 172.522C379.856 170.692 378.373 169.208 376.543 169.208C374.713 169.208 373.229 170.692 373.229 172.522Z" fill="#4AAFFF"/>
<path d="M376.554 109.485C376.554 111.315 378.038 112.798 379.868 112.798C381.697 112.798 383.181 111.315 383.181 109.485C383.181 107.655 381.697 106.171 379.868 106.171C378.038 106.171 376.554 107.655 376.554 109.485Z" fill="#4AAFFF"/>
<path d="M495.811 143.342L480.09 159.912L457.835 159.912L457.835 158.601L479.527 158.601L494.5 142.818L494.5 107.414L495.811 107.414L495.811 143.342Z" fill="#4AAFFF"/>
<path d="M121.078 96.6219L119.766 96.6219L119.766 52.9345L110.229 42.9713L110.229 13.6799L111.54 13.6799L111.54 42.4449L121.078 52.4081L121.078 96.6219Z" fill="#4AAFFF"/>
<path d="M160.469 61.2316L160.271 61.425L144.72 76.5805L144.72 107.336L120.805 124.537L120.039 123.472L143.408 106.663L143.408 76.0265L159.158 60.6783L159.158 26.1171L160.469 26.1171L160.469 61.2316Z" fill="#4AAFFF"/>
<path d="M119.024 160.506L100.111 179.42L100.927 181.388L120.991 161.321L120.991 124.011L104.402 107.421L104.402 71.7541L90.2976 57.6483L90.2976 2.48511L88.3303 2.48511L88.3303 58.4635L88.6178 58.7517L102.435 72.5694L102.435 108.235L102.722 108.523L119.024 124.826L119.024 160.506Z" fill="#4AAFFF"/>
<path d="M294.694 160.506L275.781 179.42L276.597 181.388L296.661 161.321L296.661 124.011L280.072 107.421L280.072 71.7541L265.967 57.6483L265.967 2.48511L264 2.48511L264 58.4635L264.288 58.7517L278.105 72.5694L278.105 108.235L278.392 108.523L294.694 124.826L294.694 160.506Z" fill="#4AAFFF"/>
<path d="M86.0004 3.31354C86.0004 5.14355 87.4838 6.62708 89.3137 6.62708C91.1436 6.62708 92.627 5.14355 92.627 3.31354C92.627 1.48352 91.1436 -6.48426e-08 89.3137 -1.4483e-07C87.4838 -2.24817e-07 86.0004 1.48352 86.0004 3.31354Z" fill="#4AAFFF"/>
<path d="M107.571 14.0941C107.571 15.9241 109.055 17.4076 110.885 17.4076C112.715 17.4076 114.198 15.9241 114.198 14.0941C114.198 12.264 112.715 10.7805 110.885 10.7805C109.055 10.7805 107.571 12.264 107.571 14.0941Z" fill="#4AAFFF"/>
<path d="M117.523 97.0475C117.523 98.8775 119.006 100.361 120.836 100.361C122.666 100.361 124.149 98.8775 124.149 97.0475C124.149 95.2175 122.666 93.7339 120.836 93.7339C119.006 93.7339 117.523 95.2175 117.523 97.0475Z" fill="#4AAFFF"/>
<path d="M115.866 124.419C115.866 126.249 117.35 127.732 119.18 127.732C121.009 127.732 122.493 126.249 122.493 124.419C122.493 122.589 121.009 121.105 119.18 121.105C117.35 121.105 115.866 122.589 115.866 124.419Z" fill="#4AAFFF"/>
<path d="M110 167.313C110 169.143 111.484 170.627 113.314 170.627C115.144 170.627 116.627 169.143 116.627 167.313C116.627 165.483 115.144 164 113.314 164C111.484 164 110 165.483 110 167.313Z" fill="#FFA729"/>
<path d="M83.0004 83.3135C83.0004 85.1435 84.4837 86.627 86.3136 86.627C88.1435 86.627 89.6269 85.1435 89.6269 83.3135C89.6269 81.4835 88.1435 79.9999 86.3136 79.9999C84.4837 79.9999 83.0004 81.4835 83.0004 83.3135Z" fill="#FFA729"/>
<path d="M157 26.3135C157 28.1435 158.484 29.627 160.314 29.627C162.144 29.627 163.627 28.1435 163.627 26.3135C163.627 24.4835 162.144 22.9999 160.314 22.9999C158.484 22.9999 157 24.4835 157 26.3135Z" fill="#4AAFFF"/>
<path d="M262 5.31348C262 7.14349 263.484 8.62702 265.313 8.62702C267.143 8.62702 268.627 7.14349 268.627 5.31348C268.627 3.48346 267.143 1.99994 265.313 1.99994C263.484 1.99994 262 3.48346 262 5.31348Z" fill="#4AAFFF"/>
<path d="M223.893 167.73L237.987 153.625L238.179 153.433L238.179 131.872L250.627 119.423L250.627 80.9999L249.315 80.9999L249.315 118.88L236.867 131.329L236.867 152.89L222.966 166.803L223.893 167.73Z" fill="#FFA729"/>
<path d="M203.315 8.99994V48.8175H204.627V8.99994H203.315Z" fill="#FFA729"/>
<path d="M238.627 179.989C238.627 181.819 237.143 183.303 235.313 183.303C233.483 183.303 232 181.819 232 179.989C232 178.159 233.483 176.676 235.313 176.676C237.143 176.676 238.627 178.159 238.627 179.989Z" fill="#4AAFFF"/>
<path d="M204.555 96.5181L203.243 96.5181L203.243 71.0748L183.533 51.363L184.46 50.4357L204.555 70.5317L204.555 96.5181Z" fill="#FFA729"/>
<path d="M181.097 51.3135C181.097 53.1436 182.581 54.6271 184.41 54.6271C186.24 54.6271 187.724 53.1436 187.724 51.3135C187.724 49.4835 186.24 48 184.41 48C182.581 48 181.097 49.4835 181.097 51.3135Z" fill="#FFA729"/>
<path d="M201 96.9321C201 98.7622 202.483 100.246 204.313 100.246C206.143 100.246 207.627 98.7622 207.627 96.9321C207.627 95.1021 206.143 93.6186 204.313 93.6186C202.483 93.6186 201 95.1021 201 96.9321Z" fill="#FFA729"/>
<path d="M207.627 50.3135C207.627 52.1435 206.143 53.627 204.313 53.627C202.483 53.627 201 52.1435 201 50.3135C201 48.4835 202.483 46.9999 204.313 46.9999C206.143 46.9999 207.627 48.4835 207.627 50.3135Z" fill="#FFA729"/>
<path d="M207.627 8.31348C207.627 10.1435 206.143 11.627 204.313 11.627C202.483 11.627 201 10.1435 201 8.31348C201 6.48346 202.483 4.99994 204.313 4.99994C206.143 4.99994 207.627 6.48346 207.627 8.31348Z" fill="#FFA729"/>
<path d="M215.549 96.6219L216.861 96.6219L216.861 52.9345L226.398 42.9713L226.398 13.6799L225.086 13.6799L225.086 42.4449L215.549 52.4081L215.549 96.6219Z" fill="#4AAFFF"/>
<path d="M176.158 61.2316L176.355 61.425L191.907 76.5805L191.907 107.336L215.822 124.537L216.588 123.472L193.219 106.663L193.219 76.0265L177.469 60.6783L177.469 26.1171L176.158 26.1171L176.158 61.2316Z" fill="#4AAFFF"/>
<path d="M217.603 160.506L236.516 179.42L235.7 181.388L215.636 161.321L215.636 124.011L232.225 107.421L232.225 71.7541L246.329 57.6483L246.329 2.48511L248.297 2.48511L248.297 58.4635L248.009 58.7517L234.192 72.5694L234.192 108.235L233.905 108.523L217.603 124.826L217.603 160.506Z" fill="#4AAFFF"/>
<path d="M250.627 3.31354C250.627 5.14355 249.143 6.62708 247.313 6.62708C245.483 6.62708 244 5.14355 244 3.31354C244 1.48352 245.483 -6.48426e-08 247.313 -1.4483e-07C249.143 -2.24817e-07 250.627 1.48352 250.627 3.31354Z" fill="#4AAFFF"/>
<path d="M229.055 14.0941C229.055 15.9241 227.572 17.4076 225.742 17.4076C223.912 17.4076 222.429 15.9241 222.429 14.0941C222.429 12.264 223.912 10.7805 225.742 10.7805C227.572 10.7805 229.055 12.264 229.055 14.0941Z" fill="#4AAFFF"/>
<path d="M219.104 97.0475C219.104 98.8775 217.621 100.361 215.791 100.361C213.961 100.361 212.477 98.8775 212.477 97.0475C212.477 95.2175 213.961 93.7339 215.791 93.7339C217.621 93.7339 219.104 95.2175 219.104 97.0475Z" fill="#4AAFFF"/>
<path d="M220.761 124.419C220.761 126.249 219.277 127.732 217.447 127.732C215.618 127.732 214.134 126.249 214.134 124.419C214.134 122.589 215.618 121.105 217.447 121.105C219.277 121.105 220.761 122.589 220.761 124.419Z" fill="#4AAFFF"/>
<path d="M226.627 167.313C226.627 169.143 225.143 170.627 223.313 170.627C221.483 170.627 220 169.143 220 167.313C220 165.483 221.483 164 223.313 164C225.143 164 226.627 165.483 226.627 167.313Z" fill="#FFA729"/>
<path d="M253.627 83.3135C253.627 85.1435 252.143 86.627 250.313 86.627C248.483 86.627 247 85.1435 247 83.3135C247 81.4835 248.483 79.9999 250.313 79.9999C252.143 79.9999 253.627 81.4835 253.627 83.3135Z" fill="#FFA729"/>
<path d="M179.627 26.3135C179.627 28.1435 178.143 29.627 176.313 29.627C174.483 29.627 173 28.1435 173 26.3135C173 24.4835 174.483 22.9999 176.313 22.9999C178.143 22.9999 179.627 24.4835 179.627 26.3135Z" fill="#4AAFFF"/>
<path d="M178.894 239.73L192.987 225.625L193.179 225.433L193.179 203.872L205.627 191.423L205.627 153L204.315 153L204.315 190.88L191.867 203.329L191.867 224.89L177.966 238.803L178.894 239.73Z" fill="#FFA729"/>
<path d="M103.939 260L118.205 246.989L118.399 246.812L118.399 226.924L131 215.442L131 180L129.672 180L129.672 214.941L117.072 226.423L117.072 246.311L103 259.145L103.939 260Z" fill="#FFA729"/>
<path d="M156.315 86.9999V126.817H157.627V86.9999H156.315Z" fill="#FFA729"/>
<path d="M165.218 259V298.817H166.53V259H165.218Z" fill="#FFA729"/>
<path d="M185.627 257.989C185.627 259.819 184.143 261.303 182.313 261.303C180.484 261.303 179 259.819 179 257.989C179 256.159 180.484 254.676 182.313 254.676C184.143 254.676 185.627 256.159 185.627 257.989Z" fill="#4AAFFF"/>
<path d="M262.627 257.989C262.627 259.819 261.143 261.303 259.313 261.303C257.484 261.303 256 259.819 256 257.989C256 256.159 257.484 254.675 259.313 254.675C261.143 254.675 262.627 256.159 262.627 257.989Z" fill="#4AAFFF"/>
<path d="M157.555 180.738L156.244 180.738L156.244 155.294L136.533 135.582L137.46 134.655L157.555 154.751L157.555 180.738Z" fill="#FFA729"/>
<path d="M166.458 352.737L165.146 352.737L165.146 327.294L145.436 307.582L146.363 306.655L166.458 326.751L166.458 352.737Z" fill="#FFA729"/>
<path d="M134.097 135.533C134.097 137.363 135.581 138.847 137.411 138.847C139.24 138.847 140.724 137.363 140.724 135.533C140.724 133.703 139.24 132.219 137.411 132.219C135.581 132.219 134.097 133.703 134.097 135.533Z" fill="#FFA729"/>
<path d="M143 307.533C143 309.363 144.483 310.846 146.313 310.846C148.143 310.846 149.627 309.363 149.627 307.533C149.627 305.703 148.143 304.219 146.313 304.219C144.483 304.219 143 305.703 143 307.533Z" fill="#FFA729"/>
<path d="M154 181.152C154 182.982 155.484 184.465 157.313 184.465C159.143 184.465 160.627 182.982 160.627 181.152C160.627 179.322 159.143 177.838 157.313 177.838C155.484 177.838 154 179.322 154 181.152Z" fill="#FFA729"/>
<path d="M162.903 353.151C162.903 354.981 164.386 356.465 166.216 356.465C168.046 356.465 169.53 354.981 169.53 353.151C169.53 351.321 168.046 349.838 166.216 349.838C164.386 349.838 162.903 351.321 162.903 353.151Z" fill="#FFA729"/>
<path d="M127 181.152C127 182.982 128.483 184.465 130.313 184.465C132.143 184.465 133.627 182.982 133.627 181.152C133.627 179.322 132.143 177.838 130.313 177.838C128.483 177.838 127 179.322 127 181.152Z" fill="#FFA729"/>
<path d="M160.627 128.313C160.627 130.143 159.143 131.627 157.313 131.627C155.483 131.627 154 130.143 154 128.313C154 126.483 155.483 125 157.313 125C159.143 125 160.627 126.483 160.627 128.313Z" fill="#FFA729"/>
<path d="M169.53 300.313C169.53 302.143 168.046 303.627 166.216 303.627C164.386 303.627 162.903 302.143 162.903 300.313C162.903 298.483 164.386 297 166.216 297C168.046 297 169.53 298.483 169.53 300.313Z" fill="#FFA729"/>
<path d="M160.627 86.3135C160.627 88.1435 159.143 89.627 157.313 89.627C155.484 89.627 154 88.1435 154 86.3135C154 84.4835 155.484 82.9999 157.313 82.9999C159.143 82.9999 160.627 84.4835 160.627 86.3135Z" fill="#FFA729"/>
<path d="M169.53 258.313C169.53 260.143 168.046 261.627 166.216 261.627C164.386 261.627 162.903 260.143 162.903 258.313C162.903 256.483 164.386 255 166.216 255C168.046 255 169.53 256.483 169.53 258.313Z" fill="#FFA729"/>
<path d="M168.549 180.841L169.861 180.841L169.861 137.154L179.398 127.191L179.398 97.8994L178.087 97.8994L178.087 126.664L168.549 136.628L168.549 180.841Z" fill="#4AAFFF"/>
<path d="M177.452 352.841L178.764 352.841L178.764 309.154L188.301 299.191L188.301 269.899L186.989 269.899L186.989 298.664L177.452 308.628L177.452 352.841Z" fill="#4AAFFF"/>
<path d="M163.928 244.177L182.458 257.603L181.659 259L162 244.755L162 218.269L178.254 206.492L178.254 181.173L192.073 171.159L192.073 132L194 132L194 171.738L193.718 171.943L180.181 181.752L180.181 207.07L179.899 207.275L163.928 218.848L163.928 244.177Z" fill="#4AAFFF"/>
<path d="M240.928 244.177L259.458 257.603L258.659 259L239 244.755L239 218.269L255.254 206.492L255.254 181.173L269.073 171.159L269.073 132L271 132L271 171.738L270.718 171.943L257.181 181.752L257.181 207.07L256.899 207.275L240.928 218.848L240.928 244.177Z" fill="#4AAFFF"/>
<path d="M195.627 132.314C195.627 134.144 194.143 135.627 192.313 135.627C190.483 135.627 189 134.144 189 132.314C189 130.484 190.483 129 192.313 129C194.143 129 195.627 130.484 195.627 132.314Z" fill="#4AAFFF"/>
<path d="M272.627 132.313C272.627 134.143 271.143 135.627 269.313 135.627C267.483 135.627 266 134.143 266 132.313C266 130.483 267.483 129 269.313 129C271.143 129 272.627 130.483 272.627 132.313Z" fill="#4AAFFF"/>
<path d="M182.056 98.3135C182.056 100.144 180.572 101.627 178.742 101.627C176.912 101.627 175.429 100.144 175.429 98.3135C175.429 96.4835 176.912 95 178.742 95C180.572 95 182.056 96.4835 182.056 98.3135Z" fill="#4AAFFF"/>
<path d="M190.958 270.313C190.958 272.143 189.475 273.627 187.645 273.627C185.815 273.627 184.332 272.143 184.332 270.313C184.332 268.483 185.815 267 187.645 267C189.475 267 190.958 268.483 190.958 270.313Z" fill="#4AAFFF"/>
<path d="M172.104 181.267C172.104 183.097 170.621 184.58 168.791 184.58C166.961 184.58 165.478 183.097 165.478 181.267C165.478 179.437 166.961 177.953 168.791 177.953C170.621 177.953 172.104 179.437 172.104 181.267Z" fill="#4AAFFF"/>
<path d="M181.007 353.267C181.007 355.097 179.524 356.58 177.694 356.58C175.864 356.58 174.38 355.097 174.38 353.267C174.38 351.437 175.864 349.953 177.694 349.953C179.524 349.953 181.007 351.437 181.007 353.267Z" fill="#4AAFFF"/>
<path d="M181.627 239.314C181.627 241.144 180.143 242.627 178.313 242.627C176.484 242.627 175 241.144 175 239.314C175 237.484 176.484 236 178.313 236C180.143 236 181.627 237.484 181.627 239.314Z" fill="#FFA729"/>
<path d="M208.627 155.313C208.627 157.143 207.143 158.627 205.313 158.627C203.484 158.627 202 157.143 202 155.313C202 153.483 203.484 152 205.313 152C207.143 152 208.627 153.483 208.627 155.313Z" fill="#FFA729"/>
<path d="M227.893 270.572L241.986 284.678L242.178 284.87L242.178 306.431L254.626 318.879L254.626 357.303L253.315 357.303L253.315 319.423L240.867 306.974L240.867 285.413L226.966 271.5L227.893 270.572Z" fill="#FFA729"/>
<path d="M207.315 429.303V389.485H208.626V429.303H207.315Z" fill="#FFA729"/>
<path d="M296 365V310H298V365H296Z" fill="#FFA729"/>
<path d="M503 365V310H505V365H503Z" fill="#FFA729"/>
<path d="M242.626 258.314C242.626 256.484 241.143 255 239.313 255C237.483 255 236 256.484 236 258.314C236 260.144 237.483 261.627 239.313 261.627C241.143 261.627 242.626 260.144 242.626 258.314Z" fill="#4AAFFF"/>
<path d="M208.555 341.785L207.243 341.785L207.243 367.228L187.533 386.94L188.46 387.867L208.555 367.771L208.555 341.785Z" fill="#FFA729"/>
<path d="M185.097 386.989C185.097 385.159 186.58 383.676 188.41 383.676C190.24 383.676 191.724 385.159 191.724 386.989C191.724 388.819 190.24 390.303 188.41 390.303C186.58 390.303 185.097 388.819 185.097 386.989Z" fill="#FFA729"/>
<path d="M205 341.371C205 339.541 206.483 338.057 208.313 338.057C210.143 338.057 211.626 339.541 211.626 341.371C211.626 343.201 210.143 344.684 208.313 344.684C206.483 344.684 205 343.201 205 341.371Z" fill="#FFA729"/>
<path d="M211.626 387.989C211.626 386.159 210.143 384.676 208.313 384.676C206.483 384.676 205 386.159 205 387.989C205 389.819 206.483 391.303 208.313 391.303C210.143 391.303 211.626 389.819 211.626 387.989Z" fill="#FFA729"/>
<path d="M300.627 309.314C300.627 307.484 299.143 306 297.313 306C295.483 306 294 307.484 294 309.314C294 311.144 295.483 312.627 297.313 312.627C299.143 312.627 300.627 311.144 300.627 309.314Z" fill="#FFA729"/>
<path d="M507.627 309.314C507.627 307.484 506.143 306 504.313 306C502.483 306 501 307.484 501 309.314C501 311.144 502.483 312.627 504.313 312.627C506.143 312.627 507.627 311.144 507.627 309.314Z" fill="#FFA729"/>
<path d="M211.626 429.989C211.626 428.159 210.143 426.676 208.313 426.676C206.483 426.676 205 428.159 205 429.989C205 431.819 206.483 433.303 208.313 433.303C210.143 433.303 211.626 431.819 211.626 429.989Z" fill="#FFA729"/>
<path d="M300.627 365.314C300.627 363.484 299.143 362 297.313 362C295.484 362 294 363.484 294 365.314C294 367.144 295.484 368.627 297.313 368.627C299.143 368.627 300.627 367.144 300.627 365.314Z" fill="#FFA729"/>
<path d="M507.627 365.314C507.627 363.484 506.143 362 504.313 362C502.483 362 501 363.484 501 365.314C501 367.144 502.483 368.627 504.313 368.627C506.143 368.627 507.627 367.144 507.627 365.314Z" fill="#FFA729"/>
<path d="M219.549 341.681L220.86 341.681L220.86 385.368L230.398 395.332L230.398 424.623L229.086 424.623L229.086 395.858L219.549 385.895L219.549 341.681Z" fill="#4AAFFF"/>
<path d="M180.157 377.071L180.355 376.878L195.907 361.722L195.907 330.967L219.822 313.766L220.588 314.831L197.219 331.639L197.219 362.276L181.469 377.625L181.469 412.186L180.157 412.186L180.157 377.071Z" fill="#4AAFFF"/>
<path d="M221.603 277.796L240.516 258.883L239.7 256.915L219.635 276.982L219.635 314.292L236.225 330.882L236.225 366.549L250.329 380.655L250.329 435.818L252.296 435.818L252.296 379.839L252.009 379.551L238.192 365.733L238.192 330.068L237.904 329.779L221.603 313.477L221.603 277.796Z" fill="#4AAFFF"/>
<path d="M254.626 434.989C254.626 433.159 253.143 431.676 251.313 431.676C249.483 431.676 248 433.159 248 434.989C248 436.819 249.483 438.303 251.313 438.303C253.143 438.303 254.626 436.819 254.626 434.989Z" fill="#4AAFFF"/>
<path d="M233.055 424.209C233.055 422.379 231.572 420.895 229.742 420.895C227.912 420.895 226.429 422.379 226.429 424.209C226.429 426.039 227.912 427.522 229.742 427.522C231.572 427.522 233.055 426.039 233.055 424.209Z" fill="#4AAFFF"/>
<path d="M223.104 341.255C223.104 339.425 221.62 337.942 219.79 337.942C217.961 337.942 216.477 339.425 216.477 341.255C216.477 343.085 217.961 344.569 219.79 344.569C221.62 344.569 223.104 343.085 223.104 341.255Z" fill="#4AAFFF"/>
<path d="M224.76 313.884C224.76 312.054 223.277 310.571 221.447 310.571C219.617 310.571 218.134 312.054 218.134 313.884C218.134 315.714 219.617 317.198 221.447 317.198C223.277 317.198 224.76 315.714 224.76 313.884Z" fill="#4AAFFF"/>
<path d="M230.626 270.99C230.626 269.16 229.143 267.676 227.313 267.676C225.483 267.676 224 269.16 224 270.99C224 272.82 225.483 274.303 227.313 274.303C229.143 274.303 230.626 272.82 230.626 270.99Z" fill="#FFA729"/>
<path d="M257.626 354.989C257.626 353.159 256.143 351.676 254.313 351.676C252.483 351.676 251 353.159 251 354.989C251 356.819 252.483 358.303 254.313 358.303C256.143 358.303 257.626 356.819 257.626 354.989Z" fill="#FFA729"/>
<path d="M183.626 411.989C183.626 410.159 182.143 408.676 180.313 408.676C178.483 408.676 177 410.159 177 411.989C177 413.819 178.483 415.303 180.313 415.303C182.143 415.303 183.626 413.819 183.626 411.989Z" fill="#4AAFFF"/>
<path d="M115.734 270.572L101.641 284.678L101.448 284.87L101.448 306.431L89.0006 318.879L89.0006 357.303L90.3121 357.303L90.3121 319.422L102.76 306.974L102.76 285.413L116.661 271.499L115.734 270.572Z" fill="#FFA729"/>
<path d="M136.312 429.303V389.485H135.001V429.303H136.312Z" fill="#FFA729"/>
<path d="M69.3118 419.627V379.81H68.0003V419.627H69.3118Z" fill="#FFA729"/>
<path d="M14.3115 419.627V379.81H13V419.627H14.3115Z" fill="#FFA729"/>
<path d="M101.001 258.314C101.001 256.484 102.484 255 104.314 255C106.144 255 107.627 256.484 107.627 258.314C107.627 260.144 106.144 261.627 104.314 261.627C102.484 261.627 101.001 260.144 101.001 258.314Z" fill="#4AAFFF"/>
<path d="M135.072 341.785L136.384 341.785L136.384 367.228L156.094 386.94L155.167 387.867L135.072 367.771L135.072 341.785Z" fill="#FFA729"/>
<path d="M285.072 389.728L286.383 389.728L286.383 415.171L306.094 434.883L305.166 435.81L285.072 415.714L285.072 389.728Z" fill="#FFA729"/>
<path d="M158.53 386.989C158.53 385.159 157.047 383.676 155.217 383.676C153.387 383.676 151.903 385.159 151.903 386.989C151.903 388.819 153.387 390.303 155.217 390.303C157.047 390.303 158.53 388.819 158.53 386.989Z" fill="#FFA729"/>
<path d="M308.529 434.932C308.529 433.102 307.046 431.619 305.216 431.619C303.386 431.619 301.903 433.102 301.903 434.932C301.903 436.762 303.386 438.246 305.216 438.246C307.046 438.246 308.529 436.762 308.529 434.932Z" fill="#FFA729"/>
<path d="M138.627 341.37C138.627 339.54 137.144 338.057 135.314 338.057C133.484 338.057 132.001 339.54 132.001 341.37C132.001 343.2 133.484 344.684 135.314 344.684C137.144 344.684 138.627 343.2 138.627 341.37Z" fill="#FFA729"/>
<path d="M288.627 389.314C288.627 387.484 287.143 386 285.313 386C283.483 386 282 387.484 282 389.314C282 391.144 283.483 392.627 285.313 392.627C287.143 392.627 288.627 391.144 288.627 389.314Z" fill="#FFA729"/>
<path d="M132.001 387.989C132.001 386.159 133.484 384.676 135.314 384.676C137.144 384.676 138.627 386.159 138.627 387.989C138.627 389.819 137.144 391.303 135.314 391.303C133.484 391.303 132.001 389.819 132.001 387.989Z" fill="#FFA729"/>
<path d="M65.0003 378.314C65.0003 376.484 66.4837 375 68.3136 375C70.1435 375 71.6269 376.484 71.6269 378.314C71.6269 380.144 70.1435 381.627 68.3136 381.627C66.4837 381.627 65.0003 380.144 65.0003 378.314Z" fill="#FFA729"/>
<path d="M10 378.314C10 376.484 11.4835 375 13.3134 375C15.1432 375 16.6267 376.484 16.6267 378.314C16.6267 380.144 15.1432 381.627 13.3134 381.627C11.4835 381.627 10 380.144 10 378.314Z" fill="#FFA729"/>
<path d="M132.001 429.989C132.001 428.159 133.484 426.676 135.314 426.676C137.144 426.676 138.627 428.159 138.627 429.989C138.627 431.819 137.144 433.303 135.314 433.303C133.484 433.303 132.001 431.819 132.001 429.989Z" fill="#FFA729"/>
<path d="M65.0002 420.314C65.0002 418.484 66.4837 417 68.3136 417C70.1434 417 71.6269 418.484 71.6269 420.314C71.6269 422.144 70.1434 423.627 68.3136 423.627C66.4837 423.627 65.0002 422.144 65.0002 420.314Z" fill="#FFA729"/>
<path d="M10 420.314C10 418.484 11.4834 417 13.3133 417C15.1432 417 16.6266 418.484 16.6266 420.314C16.6266 422.144 15.1432 423.627 13.3133 423.627C11.4834 423.627 10 422.144 10 420.314Z" fill="#FFA729"/>
<path d="M124.078 341.681L122.766 341.681L122.766 385.368L113.229 395.331L113.229 424.623L114.541 424.623L114.541 395.858L124.078 385.895L124.078 341.681Z" fill="#4AAFFF"/>
<path d="M163.47 377.071L163.272 376.878L147.72 361.722L147.72 330.967L123.805 313.766L123.039 314.83L146.408 331.639L146.408 362.276L162.158 377.624L162.158 412.186L163.47 412.186L163.47 377.071Z" fill="#4AAFFF"/>
<path d="M122.024 277.796L103.111 258.882L103.927 256.915L123.992 276.982L123.992 314.291L107.402 330.882L107.402 366.549L93.2977 380.654L93.2977 435.818L91.3305 435.818L91.3305 379.839L91.618 379.551L105.435 365.733L105.435 330.067L105.723 329.779L122.024 313.477L122.024 277.796Z" fill="#4AAFFF"/>
<path d="M89.0005 434.989C89.0005 433.159 90.4839 431.676 92.3138 431.676C94.1437 431.676 95.6271 433.159 95.6271 434.989C95.6271 436.819 94.1437 438.303 92.3138 438.303C90.4839 438.303 89.0005 436.819 89.0005 434.989Z" fill="#4AAFFF"/>
<path d="M110.572 424.209C110.572 422.379 112.055 420.895 113.885 420.895C115.715 420.895 117.198 422.379 117.198 424.209C117.198 426.039 115.715 427.522 113.885 427.522C112.055 427.522 110.572 426.039 110.572 424.209Z" fill="#4AAFFF"/>
<path d="M120.523 341.255C120.523 339.425 122.006 337.942 123.836 337.942C125.666 337.942 127.15 339.425 127.15 341.255C127.15 343.085 125.666 344.569 123.836 344.569C122.006 344.569 120.523 343.085 120.523 341.255Z" fill="#4AAFFF"/>
<path d="M118.866 313.884C118.866 312.054 120.35 310.57 122.18 310.57C124.01 310.57 125.493 312.054 125.493 313.884C125.493 315.714 124.01 317.198 122.18 317.198C120.35 317.198 118.866 315.714 118.866 313.884Z" fill="#4AAFFF"/>
<path d="M113.001 270.989C113.001 269.159 114.484 267.676 116.314 267.676C118.144 267.676 119.627 269.159 119.627 270.989C119.627 272.819 118.144 274.303 116.314 274.303C114.484 274.303 113.001 272.819 113.001 270.989Z" fill="#FFA729"/>
<path d="M86.0005 354.989C86.0005 353.159 87.4839 351.676 89.3138 351.676C91.1437 351.676 92.6271 353.159 92.6271 354.989C92.6271 356.819 91.1437 358.303 89.3138 358.303C87.4839 358.303 86.0005 356.819 86.0005 354.989Z" fill="#FFA729"/>
<path d="M160.001 411.989C160.001 410.159 161.484 408.676 163.314 408.676C165.144 408.676 166.627 410.159 166.627 411.989C166.627 413.819 165.144 415.303 163.314 415.303C161.484 415.303 160.001 413.819 160.001 411.989Z" fill="#4AAFFF"/>
</g>
</svg>
