<svg width="368" height="768" viewBox="0 0 368 768" fill="none" xmlns="http://www.w3.org/2000/svg">
<g clip-path="url(#clip0_2_2)">
<g clip-path="url(#clip1_2_2)">
<path d="M639.527 246.052L639.519 248.052L563.088 247.738L525.14 285.667H429.011L359.398 355.291V588.513L389.537 626.82L387.966 628.057L357.612 589.478L357.398 589.206V354.463L428.182 283.667H524.312L562.264 245.735L639.527 246.052Z" fill="#172429"/>
<path d="M174.134 318.456L212.038 356.357V607.584L211.793 607.865L193.441 629.041L191.929 627.731L210.038 606.837V357.187L173.304 320.456H110.252L85.5603 345.146L84.1463 343.732L109.424 318.456H174.134Z" fill="#172429"/>
<path d="M55.4479 318.456V320.456H-23.8177L-41.8568 339.133L-43.2962 337.744L-24.6664 318.456H55.4479Z" fill="#172429"/>
<path d="M-8.65134 245.737L21.7012 276.087H82.0108V278.087H20.8731L-9.47946 247.737H-72.3154V245.737H-8.65134Z" fill="#172429"/>
<path d="M174.765 276.088L216.797 318.117L215.383 319.532L173.937 278.088H122.487V276.088H174.765Z" fill="#172429"/>
<path d="M128.046 237.509H201.96L248.707 284.252V601.18L230.204 628.941L228.54 627.831L246.707 600.574V285.081L201.132 239.509H127.036L96.3828 197.997L97.9922 196.81L128.046 237.509Z" fill="#172429"/>
<path d="M-15.599 160.351L12.859 188.807H40.0543L40.3463 189.1L79.2438 227.994L77.8297 229.408L39.2252 190.807H12.0309L-16.4271 162.351H-53.9633V160.351H-15.599Z" fill="#172429"/>
<path d="M36.2641 111.035L62.1958 136.965H102.041L161.46 196.381L160.046 197.795L101.212 138.965H61.3677L35.436 113.035H-4.64407V111.035H36.2641Z" fill="#172429"/>
<path d="M138.71 46.5263L184.843 92.6386V145.762L219.324 180.258L217.91 181.672L182.843 146.59V93.4668L137.882 48.5263H34.5692V46.5263H138.71Z" fill="#172429"/>
<path d="M156.43 -6.59649L185.813 22.7844L184.399 24.1984L155.602 -4.59649H97.8191V-6.59649H156.43Z" fill="#172429"/>
<path d="M222.775 47.5263V118.351H220.775V47.5263H222.775Z" fill="#172429"/>
<path d="M249.338 142.386V212.75L284.762 243.102V588.502L319.643 631.121L318.095 632.388L282.988 589.493L282.762 589.217V244.022L247.338 213.67V142.386H249.338Z" fill="#172429"/>
<path d="M268.954 16.1121V90.743L297.751 119.539L296.337 120.953L266.954 91.5721V16.9402L229.297 -20.6965L230.711 -22.1105L268.954 16.1121Z" fill="#172429"/>
<path d="M370.492 -4.88946L320.185 45.3967V141.123H318.185V44.5686L369.078 -6.30352L370.492 -4.88946Z" fill="#172429"/>
<path d="M406.191 23.4912V95.9932L371.417 130.782V165.572L324.922 212.046V247.368H322.922V211.217L369.417 164.742V129.954L404.191 95.1651V23.4912H406.191Z" fill="#172429"/>
<path d="M514.046 180.409L466.329 228.123H375.253L322.419 280.953L321.005 279.539L374.424 226.123H465.501L512.632 178.995L514.046 180.409Z" fill="#172429"/>
<path d="M392.617 261.356L355.298 298.672L353.884 297.258L391.203 259.942L392.617 261.356Z" fill="#172429"/>
<path d="M185.106 28.5439C187.897 28.5439 190.159 26.2817 190.159 23.4912C190.159 20.7007 187.897 18.4386 185.106 18.4386C182.315 18.4386 180.053 20.7007 180.053 23.4912C180.053 26.2817 182.315 28.5439 185.106 28.5439Z" fill="#172429"/>
<path d="M221.775 52.5789C224.566 52.5789 226.828 50.3168 226.828 47.5263C226.828 44.7358 224.566 42.4737 221.775 42.4737C218.984 42.4737 216.722 44.7358 216.722 47.5263C216.722 50.3168 218.984 52.5789 221.775 52.5789Z" fill="#172429"/>
<path d="M297.043 125.298C299.834 125.298 302.096 123.036 302.096 120.246C302.096 117.455 299.834 115.193 297.043 115.193C294.253 115.193 291.99 117.455 291.99 120.246C291.99 123.036 294.253 125.298 297.043 125.298Z" fill="#172429"/>
<path d="M248.338 147.439C251.129 147.439 253.391 145.176 253.391 142.386C253.391 139.595 251.129 137.333 248.338 137.333C245.548 137.333 243.285 139.595 243.285 142.386C243.285 145.176 245.548 147.439 248.338 147.439Z" fill="#172429"/>
<path d="M354.591 303.018C357.382 303.018 359.644 300.755 359.644 297.965C359.644 295.174 357.382 292.912 354.591 292.912C351.801 292.912 349.538 295.174 349.538 297.965C349.538 300.755 351.801 303.018 354.591 303.018Z" fill="#172429"/>
<path d="M321.712 285.298C324.502 285.298 326.765 283.036 326.765 280.246C326.765 277.455 324.502 275.193 321.712 275.193C318.921 275.193 316.659 277.455 316.659 280.246C316.659 283.036 318.921 285.298 321.712 285.298Z" fill="#172429"/>
<path d="M324.238 252.421C327.029 252.421 329.291 250.159 329.291 247.368C329.291 244.578 327.029 242.316 324.238 242.316C321.448 242.316 319.185 244.578 319.185 247.368C319.185 250.159 321.448 252.421 324.238 252.421Z" fill="#172429"/>
<path d="M221.775 123.404C224.566 123.404 226.828 121.141 226.828 118.351C226.828 115.56 224.566 113.298 221.775 113.298C218.984 113.298 216.722 115.56 216.722 118.351C216.722 121.141 218.984 123.404 221.775 123.404Z" fill="#172429"/>
<path d="M34.5692 52.5789C37.3598 52.5789 39.6221 50.3168 39.6221 47.5263C39.6221 44.7358 37.3598 42.4737 34.5692 42.4737C31.7785 42.4737 29.5162 44.7358 29.5162 47.5263C29.5162 50.3168 31.7785 52.5789 34.5692 52.5789Z" fill="#172429"/>
<path d="M183.843 148.702C186.633 148.702 188.896 146.44 188.896 143.649C188.896 140.859 186.633 138.596 183.843 138.596C181.052 138.596 178.79 140.859 178.79 143.649C178.79 146.44 181.052 148.702 183.843 148.702Z" fill="#172429"/>
<path d="M-4.62652 117.088C-1.83584 117.088 0.426458 114.826 0.426458 112.035C0.426458 109.245 -1.83584 106.982 -4.62652 106.982C-7.41721 106.982 -9.6795 109.245 -9.6795 112.035C-9.6795 114.826 -7.41721 117.088 -4.62652 117.088Z" fill="#172429"/>
<path d="M77.5897 233.439C80.3803 233.439 82.6426 231.176 82.6426 228.386C82.6426 225.595 80.3803 223.333 77.5897 223.333C74.799 223.333 72.5367 225.595 72.5367 228.386C72.5367 231.176 74.799 233.439 77.5897 233.439Z" fill="#172429"/>
<path d="M97.8191 203.088C100.61 203.088 102.872 200.826 102.872 198.035C102.872 195.245 100.61 192.982 97.8191 192.982C95.0284 192.982 92.7661 195.245 92.7661 198.035C92.7661 200.826 95.0284 203.088 97.8191 203.088Z" fill="#172429"/>
<path d="M161.069 203.088C163.86 203.088 166.122 200.826 166.122 198.035C166.122 195.245 163.86 192.982 161.069 192.982C158.278 192.982 156.016 195.245 156.016 198.035C156.016 200.826 158.278 203.088 161.069 203.088Z" fill="#172429"/>
<path d="M56.0794 324.509C58.8701 324.509 61.1324 322.247 61.1324 319.456C61.1324 316.666 58.8701 314.404 56.0794 314.404C53.2887 314.404 51.0264 316.666 51.0264 319.456C51.0264 322.247 53.2887 324.509 56.0794 324.509Z" fill="#172429"/>
<path d="M83.9059 351.07C86.6966 351.07 88.9589 348.808 88.9589 346.018C88.9589 343.227 86.6966 340.965 83.9059 340.965C81.1152 340.965 78.8529 343.227 78.8529 346.018C78.8529 348.808 81.1152 351.07 83.9059 351.07Z" fill="#172429"/>
<path d="M216.722 323.246C219.513 323.246 221.775 320.983 221.775 318.193C221.775 315.402 219.513 313.14 216.722 313.14C213.931 313.14 211.669 315.402 211.669 318.193C211.669 320.983 213.931 323.246 216.722 323.246Z" fill="#172429"/>
<path d="M82.6426 282.772C85.4333 282.772 87.6956 280.51 87.6956 277.719C87.6956 274.929 85.4333 272.667 82.6426 272.667C79.852 272.667 77.5897 274.929 77.5897 277.719C77.5897 280.51 79.852 282.772 82.6426 282.772Z" fill="#172429"/>
<path d="M102.241 252.053V254.053H35.6194L20.4261 268.597H-24.2419V266.597H19.6233L34.8167 252.053H102.241Z" fill="#4AAFFF"/>
<path d="M48.2722 191.982L48.5671 192.284L71.6784 216H118.579L144.809 252.469L143.186 253.637L117.553 218H70.8337L47.4284 193.982H-5.2757V191.982H48.2722Z" fill="#4AAFFF"/>
<path d="M197.539 217.912L197.831 218.205L231.004 251.375V285.316H229.004V252.203L196.71 219.912H155.367V217.912H197.539Z" fill="#4AAFFF"/>
<path d="M41.9574 121.14L62.2045 142.017H88.7592L122.27 175.526H153.472V177.526H121.442L87.931 144.017H61.3588L41.1117 123.14H9.91833V121.14H41.9574Z" fill="#4AAFFF"/>
<path d="M161.059 181.991H219.238L259.962 222.712V652.095L229.046 683.009H193.939L169.569 707.394L167.447 705.273L192.695 680.009H227.804L256.962 650.852V223.954L217.996 184.991H159.816L130.287 155.464L132.408 153.343L161.059 181.991Z" fill="#4AAFFF"/>
<path d="M267.397 686.339L245.887 707.83L245.595 708.123H212.715L193.731 727.105H135.137V725.105H192.903L211.887 706.123H244.766L265.983 684.925L267.397 686.339Z" fill="#4AAFFF"/>
<path d="M231.342 727.444L209.2 749.567L207.786 748.152L229.929 726.03L231.342 727.444Z" fill="#4AAFFF"/>
<path d="M245.812 663.123V665.123H158.325L128.247 695.181L126.833 693.766L157.205 663.416L157.497 663.123H245.812Z" fill="#4AAFFF"/>
<path d="M228.504 284.026L199.661 255.184H145.25L120.39 280.044L119.95 280.482H65.5617L44.4904 301.552L44.051 301.991H-41.3133V298.991H42.8078L64.3186 277.482H118.708L144.008 252.184H200.904L231.504 282.782V629.886H164.532L144.619 649.816H112.354L95.2824 666.886H31.4113V663.886H94.0393L111.112 646.816H143.376L163.289 626.886H228.504V284.026Z" fill="#4AAFFF"/>
<path d="M282.235 705.86V730.941L267.69 745.485V769.106H265.69V744.656L280.235 730.112V705.86H282.235Z" fill="#4AAFFF"/>
<path d="M321.495 746.597H362.819V748.597H320.666L300.126 728.075L301.54 726.661L321.495 746.597Z" fill="#4AAFFF"/>
<path d="M260.12 103.807V160.571L292.104 192.553L292.543 192.993V675.833L333.088 716.377H375.46L405.621 746.536L403.499 748.658L374.217 719.377H331.845L289.543 677.078V194.236L257.559 162.253L257.12 161.815V103.807H260.12Z" fill="#4AAFFF"/>
<path d="M82.4175 80.6667L107.719 105.334H144.412L219.956 180.889L218.542 182.303L143.584 107.334H106.904L81.6041 82.6667H35.2183V80.6667H82.4175Z" fill="#4AAFFF"/>
<path d="M167.168 26.9123L206.967 66.7082V108.445L239.864 141.34V203.701H237.864V142.168L204.967 109.274V67.5373L166.339 28.9123H82.011V26.9123H167.168Z" fill="#4AAFFF"/>
<path d="M239.232 27.9123V88.632H237.232V27.9123H239.232Z" fill="#4AAFFF"/>
<path d="M295.224 8.24085L295.517 8.53284V74.9157L326.972 104.18L325.61 105.644L293.517 75.7868V9.35999L261.562 -22.6088L262.976 -24.0228L295.224 8.24085Z" fill="#4AAFFF"/>
<path d="M360.382 -12.4986L327.133 21.9994V123.186L274.029 176.303L272.615 174.889L325.133 122.358V21.1928L325.413 20.9027L358.942 -13.8873L360.382 -12.4986Z" fill="#4AAFFF"/>
<path d="M389.436 10.2105V65.3267L359.398 95.3619V122.554L322.08 159.871V193.614H320.08V159.042L357.398 121.725V94.5328L387.436 64.4967V10.2105H389.436Z" fill="#4AAFFF"/>
<path d="M539.068 28.3412L515.223 52.184H454.505L366.846 137.318V177.807H363.846V136.05L453.288 49.184H513.981L536.947 26.2202L539.068 28.3412Z" fill="#FFA729"/>
<path d="M481.521 137.745L439.973 179.307H365.967L320.369 224.902V652.116L352.211 683.973H381.144L381.582 684.413L395.583 698.395L393.464 700.517L379.903 686.973H350.969L317.369 653.358V223.66L364.725 176.307H438.73L479.399 135.624L481.521 137.745Z" fill="#FFA729"/>
<path d="M582.281 190.219L614.845 222.781H662.612V225.781H613.601L613.163 225.341L581.038 193.219H517.136L486.134 224.202H405.18L349.143 280.235V625.939H419.095L443.132 649.974H538.638V652.974H441.888L417.851 628.939H346.143V278.993L403.938 221.202H484.891L515.893 190.219H582.281Z" fill="#4AAFFF"/>
<path d="M495.005 252.053V254.053H429.011L348.35 334.707L346.936 333.293L428.182 252.053H495.005Z" fill="#4AAFFF"/>
<path d="M376.808 203.795L345.824 234.795L344.41 233.381L375.394 202.381L376.808 203.795Z" fill="#4AAFFF"/>
<path d="M102.89 257.474C105.68 257.474 107.943 255.212 107.943 252.421C107.943 249.631 105.68 247.368 102.89 247.368C100.099 247.368 97.8367 249.631 97.8367 252.421C97.8367 255.212 100.099 257.474 102.89 257.474Z" fill="#4AAFFF"/>
<path d="M144.629 260C147.42 260 149.682 257.738 149.682 254.947C149.682 252.157 147.42 249.895 144.629 249.895C141.839 249.895 139.576 252.157 139.576 254.947C139.576 257.738 141.839 260 144.629 260Z" fill="#4AAFFF"/>
<path d="M154.735 223.333C157.526 223.333 159.788 221.071 159.788 218.281C159.788 215.49 157.526 213.228 154.735 213.228C151.945 213.228 149.682 215.49 149.682 218.281C149.682 221.071 151.945 223.333 154.735 223.333Z" fill="#4AAFFF"/>
<path d="M229.372 286.561C232.163 286.561 234.425 284.299 234.425 281.509C234.425 278.718 232.163 276.456 229.372 276.456C226.581 276.456 224.319 278.718 224.319 281.509C224.319 284.299 226.581 286.561 229.372 286.561Z" fill="#4AAFFF"/>
<path d="M-4.62652 198.035C-1.83584 198.035 0.426458 195.773 0.426458 192.982C0.426458 190.192 -1.83584 187.93 -4.62652 187.93C-7.41721 187.93 -9.6795 190.192 -9.6795 192.982C-9.6795 195.773 -7.41721 198.035 -4.62652 198.035Z" fill="#4AAFFF"/>
<path d="M10.55 127.193C13.3406 127.193 15.6029 124.931 15.6029 122.14C15.6029 119.35 13.3406 117.088 10.55 117.088C7.75928 117.088 5.49698 119.35 5.49698 122.14C5.49698 124.931 7.75928 127.193 10.55 127.193Z" fill="#4AAFFF"/>
<path d="M130.716 158.825C133.507 158.825 135.769 156.562 135.769 153.772C135.769 150.981 133.507 148.719 130.716 148.719C127.925 148.719 125.663 150.981 125.663 153.772C125.663 156.562 127.925 158.825 130.716 158.825Z" fill="#4AAFFF"/>
<path d="M34.5692 86.7193C37.3598 86.7193 39.6221 84.4572 39.6221 81.6667C39.6221 78.8762 37.3598 76.614 34.5692 76.614C31.7785 76.614 29.5162 78.8762 29.5162 81.6667C29.5162 84.4572 31.7785 86.7193 34.5692 86.7193Z" fill="#4AAFFF"/>
<path d="M82.6426 32.3333C85.4333 32.3333 87.6956 30.0712 87.6956 27.2807C87.6956 24.4902 85.4333 22.2281 82.6426 22.2281C79.852 22.2281 77.5897 24.4902 77.5897 27.2807C77.5897 30.0712 79.852 32.3333 82.6426 32.3333Z" fill="#4AAFFF"/>
<path d="M238.232 147.439C241.023 147.439 243.285 145.176 243.285 142.386C243.285 139.595 241.023 137.333 238.232 137.333C235.442 137.333 233.179 139.595 233.179 142.386C233.179 145.176 235.442 147.439 238.232 147.439Z" fill="#4AAFFF"/>
<path d="M238.232 93.0526C241.023 93.0526 243.285 90.7905 243.285 88C243.285 85.2095 241.023 82.9474 238.232 82.9474C235.442 82.9474 233.179 85.2095 233.179 88C233.179 90.7905 235.442 93.0526 238.232 93.0526Z" fill="#4AAFFF"/>
<path d="M258.462 108.228C261.252 108.228 263.515 105.966 263.515 103.175C263.515 100.385 261.252 98.1228 258.462 98.1228C255.671 98.1228 253.409 100.385 253.409 103.175C253.409 105.966 255.671 108.228 258.462 108.228Z" fill="#4AAFFF"/>
<path d="M238.232 32.3333C241.023 32.3333 243.285 30.0712 243.285 27.2807C243.285 24.4902 241.023 22.2281 238.232 22.2281C235.442 22.2281 233.179 24.4902 233.179 27.2807C233.179 30.0712 235.442 32.3333 238.232 32.3333Z" fill="#4AAFFF"/>
<path d="M197.756 62.6842C200.546 62.6842 202.809 60.4221 202.809 57.6316C202.809 54.8411 200.546 52.5789 197.756 52.5789C194.965 52.5789 192.703 54.8411 192.703 57.6316C192.703 60.4221 194.965 62.6842 197.756 62.6842Z" fill="#4AAFFF"/>
<path d="M118.066 5.77193C120.857 5.77193 123.119 3.50979 123.119 0.719304C123.119 -2.07119 120.857 -4.33333 118.066 -4.33333C115.275 -4.33333 113.013 -2.07119 113.013 0.719304C113.013 3.50979 115.275 5.77193 118.066 5.77193Z" fill="#4AAFFF"/>
<path d="M325.501 109.491C328.292 109.491 330.554 107.229 330.554 104.439C330.554 101.648 328.292 99.386 325.501 99.386C322.711 99.386 320.448 101.648 320.448 104.439C320.448 107.229 322.711 109.491 325.501 109.491Z" fill="#4AAFFF"/>
<path d="M320.448 199.298C323.239 199.298 325.501 197.036 325.501 194.246C325.501 191.455 323.239 189.193 320.448 189.193C317.658 189.193 315.396 191.455 315.396 194.246C315.396 197.036 317.658 199.298 320.448 199.298Z" fill="#4AAFFF"/>
<path d="M365.978 182.86C368.769 182.86 371.031 180.597 371.031 177.807C371.031 175.017 368.769 172.754 365.978 172.754C363.187 172.754 360.925 175.017 360.925 177.807C360.925 180.597 363.187 182.86 365.978 182.86Z" fill="#FFA729"/>
<path d="M348.275 338.421C351.066 338.421 353.328 336.159 353.328 333.368C353.328 330.578 351.066 328.316 348.275 328.316C345.484 328.316 343.222 330.578 343.222 333.368C343.222 336.159 345.484 338.421 348.275 338.421Z" fill="#4AAFFF"/>
<path d="M360.925 753.281C363.716 753.281 365.978 751.019 365.978 748.228C365.978 745.438 363.716 743.175 360.925 743.175C358.134 743.175 355.872 745.438 355.872 748.228C355.872 751.019 358.134 753.281 360.925 753.281Z" fill="#4AAFFF"/>
<path d="M300.201 731.789C302.992 731.789 305.254 729.527 305.254 726.737C305.254 723.946 302.992 721.684 300.201 721.684C297.411 721.684 295.148 723.946 295.148 726.737C295.148 729.527 297.411 731.789 300.201 731.789Z" fill="#4AAFFF"/>
<path d="M281.235 711.544C284.026 711.544 286.288 709.282 286.288 706.491C286.288 703.701 284.026 701.439 281.235 701.439C278.445 701.439 276.182 703.701 276.182 706.491C276.182 709.282 278.445 711.544 281.235 711.544Z" fill="#4AAFFF"/>
<path d="M266.059 771C268.849 771 271.112 768.738 271.112 765.947C271.112 763.157 268.849 760.895 266.059 760.895C263.268 760.895 261.006 763.157 261.006 765.947C261.006 768.738 263.268 771 266.059 771Z" fill="#4AAFFF"/>
<path d="M230.635 731.789C233.426 731.789 235.688 729.527 235.688 726.737C235.688 723.946 233.426 721.684 230.635 721.684C227.845 721.684 225.582 723.946 225.582 726.737C225.582 729.527 227.845 731.789 230.635 731.789Z" fill="#4AAFFF"/>
<path d="M206.599 755.807C209.389 755.807 211.652 753.545 211.652 750.754C211.652 747.964 209.389 745.702 206.599 745.702C203.808 745.702 201.546 747.964 201.546 750.754C201.546 753.545 203.808 755.807 206.599 755.807Z" fill="#4AAFFF"/>
<path d="M266.059 690.053C268.849 690.053 271.112 687.791 271.112 685C271.112 682.21 268.849 679.947 266.059 679.947C263.268 679.947 261.006 682.21 261.006 685C261.006 687.791 263.268 690.053 266.059 690.053Z" fill="#4AAFFF"/>
<path d="M134.506 730.526C137.297 730.526 139.559 728.264 139.559 725.474C139.559 722.683 137.297 720.421 134.506 720.421C131.715 720.421 129.453 722.683 129.453 725.474C129.453 728.264 131.715 730.526 134.506 730.526Z" fill="#4AAFFF"/>
<path d="M168.649 711.544C171.439 711.544 173.702 709.282 173.702 706.491C173.702 703.701 171.439 701.439 168.649 701.439C165.858 701.439 163.596 703.701 163.596 706.491C163.596 709.282 165.858 711.544 168.649 711.544Z" fill="#4AAFFF"/>
<path d="M128.821 698.263C131.612 698.263 133.874 696.001 133.874 693.211C133.874 690.42 131.612 688.158 128.821 688.158C126.031 688.158 123.768 690.42 123.768 693.211C123.768 696.001 126.031 698.263 128.821 698.263Z" fill="#4AAFFF"/>
<path d="M32.0427 669.807C34.8334 669.807 37.0956 667.545 37.0956 664.754C37.0956 661.964 34.8334 659.702 32.0427 659.702C29.252 659.702 26.9897 661.964 26.9897 664.754C26.9897 667.545 29.252 669.807 32.0427 669.807Z" fill="#4AAFFF"/>
<path d="M347.012 238.509C349.802 238.509 352.065 236.247 352.065 233.456C352.065 230.666 349.802 228.404 347.012 228.404C344.221 228.404 341.959 230.666 341.959 233.456C341.959 236.247 344.221 238.509 347.012 238.509Z" fill="#4AAFFF"/>
<path d="M217.985 186.649C220.776 186.649 223.038 184.387 223.038 181.596C223.038 178.806 220.776 176.544 217.985 176.544C215.195 176.544 212.932 178.806 212.932 181.596C212.932 184.387 215.195 186.649 217.985 186.649Z" fill="#4AAFFF"/>
<path d="M121.856 181.579C124.647 181.579 126.909 179.317 126.909 176.526C126.909 173.736 124.647 171.474 121.856 171.474C119.065 171.474 116.803 173.736 116.803 176.526C116.803 179.317 119.065 181.579 121.856 181.579Z" fill="#4AAFFF"/>
<path d="M173.487 -0.280701L198.755 23.6929V57.6314H196.755V24.5513L172.688 1.7193H118.698V-0.280701H173.487Z" fill="#4AAFFF"/>
</g>
<g clip-path="url(#clip2_2_2)">
<path d="M-58.1335 394.544L-96.0378 356.643L-96.0378 105.416L-95.7927 105.135L-77.4411 83.959L-75.9294 85.2696L-94.0378 106.163L-94.0378 355.813L-57.3044 392.544L5.74831 392.544L30.4397 367.855L31.8538 369.269L6.57643 394.544L-58.1335 394.544Z" fill="#172429"/>
<path d="M60.5521 394.544L60.5521 392.544L139.818 392.544L157.857 373.867L159.296 375.256L140.666 394.544L60.5521 394.544Z" fill="#172429"/>
<path d="M124.651 467.263L94.2988 436.913L33.9892 436.913L33.9892 434.913L95.1269 434.913L125.479 465.263L188.315 465.263L188.315 467.263L124.651 467.263Z" fill="#172429"/>
<path d="M-12.0458 475.491L-85.9599 475.491L-132.707 428.748L-132.707 111.82L-114.204 84.0594L-112.54 85.1688L-130.707 112.426L-130.707 427.919L-85.1318 473.491L-11.0361 473.491L19.6172 515.003L18.0079 516.19L-12.0458 475.491Z" fill="#172429"/>
<path d="M131.599 552.649L103.141 524.193L75.9457 524.193L75.6537 523.9L36.7562 485.006L38.1703 483.592L76.7748 522.193L103.969 522.193L132.427 550.649L169.963 550.649L169.963 552.649L131.599 552.649Z" fill="#172429"/>
<path d="M79.7358 601.965L53.8042 576.035L13.9595 576.035L-45.4604 516.619L-44.0464 515.205L14.7876 574.035L54.6323 574.035L80.564 599.965L120.644 599.965L120.644 601.965L79.7358 601.965Z" fill="#172429"/>
<path d="M-40.4304 719.597L-69.8132 690.216L-68.3992 688.802L-39.6023 717.597L18.1809 717.597L18.1809 719.597L-40.4304 719.597Z" fill="#172429"/>
<path d="M20.7074 713.544C17.9167 713.544 15.6544 715.806 15.6544 718.597C15.6544 721.387 17.9167 723.649 20.7074 723.649C23.4981 723.649 25.7604 721.387 25.7604 718.597C25.7604 715.806 23.4981 713.544 20.7074 713.544Z" fill="#172429"/>
<path d="M120.627 595.912C117.836 595.912 115.574 598.174 115.574 600.965C115.574 603.755 117.836 606.018 120.627 606.018C123.417 606.018 125.679 603.755 125.679 600.965C125.679 598.174 123.417 595.912 120.627 595.912Z" fill="#172429"/>
<path d="M169.963 546.597C167.173 546.597 164.91 548.859 164.91 551.649C164.91 554.44 167.173 556.702 169.963 556.702C172.754 556.702 175.016 554.44 175.016 551.649C175.016 548.859 172.754 546.597 169.963 546.597Z" fill="#172429"/>
<path d="M38.4104 479.561C35.6197 479.561 33.3574 481.824 33.3574 484.614C33.3574 487.405 35.6197 489.667 38.4104 489.667C41.2011 489.667 43.4634 487.405 43.4634 484.614C43.4634 481.824 41.2011 479.561 38.4104 479.561Z" fill="#172429"/>
<path d="M18.1809 509.912C15.3902 509.912 13.128 512.175 13.128 514.965C13.128 517.755 15.3902 520.018 18.1809 520.018C20.9716 520.018 23.2339 517.755 23.2339 514.965C23.2339 512.175 20.9716 509.912 18.1809 509.912Z" fill="#172429"/>
<path d="M188.947 460.579C186.156 460.579 183.894 462.841 183.894 465.632C183.894 468.422 186.156 470.684 188.947 470.684C191.738 470.684 194 468.422 194 465.632C194 462.841 191.738 460.579 188.947 460.579Z" fill="#172429"/>
<path d="M158.577 369.509C155.786 369.509 153.524 371.771 153.524 374.561C153.524 377.352 155.786 379.614 158.577 379.614C161.367 379.614 163.629 377.352 163.629 374.561C163.629 371.771 161.367 369.509 158.577 369.509Z" fill="#172429"/>
<path d="M59.9207 388.491C57.13 388.491 54.8677 390.753 54.8677 393.544C54.8677 396.334 57.13 398.597 59.9207 398.597C62.7113 398.597 64.9736 396.334 64.9736 393.544C64.9736 390.753 62.7113 388.491 59.9207 388.491Z" fill="#172429"/>
<path d="M32.0942 361.93C29.3035 361.93 27.0412 364.192 27.0412 366.983C27.0412 369.773 29.3035 372.035 32.0942 372.035C34.8849 372.035 37.1472 369.773 37.1472 366.983C37.1472 364.192 34.8849 361.93 32.0942 361.93Z" fill="#172429"/>
<path d="M33.3574 430.228C30.5667 430.228 28.3044 432.49 28.3044 435.281C28.3044 438.071 30.5667 440.333 33.3574 440.333C36.1481 440.333 38.4104 438.071 38.4104 435.281C38.4104 432.49 36.1481 430.228 33.3574 430.228Z" fill="#172429"/>
<path d="M13.7595 460.947L13.7595 458.947L80.3806 458.947L95.5739 444.403L140.242 444.404L140.242 446.404L96.3767 446.403L81.1833 460.947L13.7595 460.947Z" fill="#4AAFFF"/>
<path d="M67.7278 521.018L67.4329 520.716L44.3216 497L-2.57881 497L-28.8093 460.531L-27.1862 459.363L-1.55342 495L45.1663 495L68.5716 519.018L121.276 519.018L121.276 521.018L67.7278 521.018Z" fill="#4AAFFF"/>
<path d="M74.0426 591.86L53.7955 570.983L27.2408 570.983L-6.26992 537.474L-37.4721 537.474L-37.4721 535.474L-5.44179 535.474L28.0689 568.983L54.6412 568.983L74.8883 589.86L106.082 589.86L106.082 591.86L74.0426 591.86Z" fill="#4AAFFF"/>
<path d="M-112.504 428.974L-83.6614 457.816L-29.2502 457.816L-4.38987 432.956L-3.95042 432.518L50.4383 432.518L71.5095 411.448L71.949 411.009L157.313 411.009L157.313 414.009L73.1922 414.009L51.6814 435.518L-2.70823 435.518L-28.008 460.816L-84.9035 460.816L-115.504 430.218L-115.504 83.1137L-48.5324 83.1137L-157.337 53.5703L-125.071 53.5703L-108 36.5L-44.1289 36.5L-44.1289 39.5L-106.757 39.5L-123.829 56.5703L-156.094 56.5703L-47.2893 86.1137L-112.504 86.1137L-112.504 428.974Z" fill="#FFA729"/>
<path d="M33.5824 632.333L8.28068 607.666L-28.4117 607.666L-103.956 532.111L-102.542 530.697L-27.5836 605.666L9.09611 605.666L34.3959 630.333L80.7817 630.333L80.7817 632.333L33.5824 632.333Z" fill="#FFA729"/>
<path d="M-51.1682 686.088L-90.967 646.292L-90.967 604.556L-123.863 571.66L-123.863 509.299L-121.863 509.299L-121.863 570.832L-88.967 603.726L-88.967 645.463L-50.3391 684.088L33.989 684.088L33.989 686.088L-51.1682 686.088Z" fill="#4AAFFF"/>
<path d="M156.05 407.456C153.259 407.456 150.997 409.718 150.997 412.509C150.997 415.299 153.259 417.562 156.05 417.562C158.841 417.562 161.103 415.299 161.103 412.509C161.103 409.718 158.841 407.456 156.05 407.456Z" fill="#FFA729"/>
<path d="M139.61 440.351C136.82 440.351 134.557 442.613 134.557 445.404C134.557 448.194 136.82 450.456 139.61 450.456C142.401 450.456 144.663 448.194 144.663 445.404C144.663 442.613 142.401 440.351 139.61 440.351Z" fill="#4AAFFF"/>
<path d="M13.1104 455.526C10.3197 455.526 8.05742 457.789 8.05742 460.579C8.05742 463.37 10.3197 465.632 13.1104 465.632C15.9011 465.632 18.1634 463.37 18.1634 460.579C18.1634 457.789 15.9011 455.526 13.1104 455.526Z" fill="#4AAFFF"/>
<path d="M120.627 514.965C117.836 514.965 115.574 517.227 115.574 520.018C115.574 522.808 117.836 525.07 120.627 525.07C123.417 525.07 125.679 522.808 125.679 520.018C125.679 517.227 123.417 514.965 120.627 514.965Z" fill="#4AAFFF"/>
<path d="M105.45 585.807C102.659 585.807 100.397 588.069 100.397 590.86C100.397 593.65 102.659 595.912 105.45 595.912C108.241 595.912 110.503 593.65 110.503 590.86C110.503 588.069 108.241 585.807 105.45 585.807Z" fill="#4AAFFF"/>
<path d="M81.4308 626.281C78.6401 626.281 76.3778 628.543 76.3778 631.333C76.3778 634.124 78.6401 636.386 81.4308 636.386C84.2215 636.386 86.4838 634.124 86.4838 631.333C86.4838 628.543 84.2215 626.281 81.4308 626.281Z" fill="#FFA729"/>
<path d="M33.3574 680.667C30.5667 680.667 28.3044 682.929 28.3044 685.719C28.3044 688.51 30.5667 690.772 33.3574 690.772C36.1481 690.772 38.4104 688.51 38.4104 685.719C38.4104 682.929 36.1481 680.667 33.3574 680.667Z" fill="#4AAFFF"/>
<path d="M-43.3155 30.0351L-43.3155 28.0351L35.9501 28.0351L53.9892 9.35834L55.4286 10.747L36.7987 30.0351L-43.3155 30.0351Z" fill="#172429"/>
<path d="M54.7089 4.99998C51.9182 4.99998 49.6559 7.26213 49.6559 10.0526C49.6559 12.8431 51.9182 15.1053 54.7089 15.1053C57.4996 15.1053 59.7619 12.8431 59.7619 10.0526C59.7619 7.26213 57.4996 4.99998 54.7089 4.99998Z" fill="#172429"/>
<path d="M-80.3155 82.0351L-80.3155 80.0351L-1.0499 80.0351L16.9892 61.3583L18.4286 62.747L-0.201271 82.0351L-80.3155 82.0351Z" fill="#172429"/>
<path d="M17.7089 57C14.9182 57 12.6559 59.2621 12.6559 62.0526C12.6559 64.8431 14.9182 67.1053 17.7089 67.1053C20.4996 67.1053 22.7619 64.8431 22.7619 62.0526C22.7619 59.2621 20.4996 57 17.7089 57Z" fill="#172429"/>
<path d="M-19.2979 741.596L-19.2979 739.596L47.3232 739.596L62.5166 725.053L107.185 725.053L107.185 727.053L63.3193 727.053L48.126 741.596L-19.2979 741.596Z" fill="#FFA729"/>
<path d="M106.553 721C103.762 721 101.5 723.262 101.5 726.053C101.5 728.843 103.762 731.105 106.553 731.105C109.344 731.105 111.606 728.843 111.606 726.053C111.606 723.262 109.344 721 106.553 721Z" fill="#FFA729"/>
</g>
</g>
<defs>
<clipPath id="clip0_2_2">
<rect width="368" height="768" fill="white"/>
</clipPath>
<clipPath id="clip1_2_2">
<rect width="764" height="800" fill="white" transform="translate(-78 -29)"/>
</clipPath>
<clipPath id="clip2_2_2">
<rect width="764" height="800" fill="white" transform="translate(194 742) rotate(-180)"/>
</clipPath>
</defs>
</svg>
