<svg width="31" height="33" viewBox="0 0 31 33" fill="none" xmlns="http://www.w3.org/2000/svg">
<path d="M22.2495 22.7381C24.2209 22.7381 25.124 21.9888 25.5375 21.2719C26.3334 19.8932 25.7746 18.0982 23.8737 15.9392C22.821 14.7439 21.2335 13.1804 20.1554 12.4028C20.0862 11.7325 19.9931 11.0763 19.8774 10.4442C20.185 10.368 20.487 10.303 20.7777 10.2508C22.5755 9.93332 23.6141 10.1944 23.8441 10.5937C23.9993 10.8633 23.8808 11.4221 23.5181 12.1277C23.2077 12.733 22.9269 13.0689 22.838 13.1677C23.3982 13.6686 23.9048 14.1922 24.2308 14.5421C24.3959 14.3671 24.8164 13.8803 25.2581 13.0223C25.9608 11.6563 26.0554 10.5105 25.5389 9.61581C25.0154 8.70844 23.7058 7.74886 20.439 8.3246C20.113 8.38246 19.7772 8.45443 19.4357 8.5391C18.6356 5.75772 17.2964 3.78917 15.4464 3.78917C14.3711 3.78917 12.8498 4.4764 11.7054 7.76579C11.6941 7.80248 11.4133 8.66469 11.1946 9.63697C10.9716 10.6262 10.7642 11.6888 10.5765 12.7994C9.9838 13.2241 9.42498 13.6602 8.90568 14.1033C7.36612 12.5115 6.7184 11.1624 7.04579 10.5951C7.24335 10.2536 7.86284 9.97001 8.80126 10.1055C9.34173 10.1831 9.70439 10.2692 9.85962 10.3101C10.0036 9.57206 10.1941 8.8679 10.3267 8.41069C10.0995 8.35283 9.6804 8.25687 9.08066 8.16938C7.43244 7.93231 6.00436 8.48689 5.35241 9.61722C4.42669 11.2203 5.46106 13.3652 7.47054 15.4481C7.22641 15.7021 6.99498 15.9561 6.78331 16.2101C4.65248 18.7516 4.82887 20.3659 5.35241 21.2719C5.93239 22.2752 7.13187 22.7903 8.72929 22.7903C9.80882 22.7903 11.0718 22.5546 12.4448 22.0748C13.1039 21.8448 14.6759 21.2098 15.4181 20.9064C16.1406 21.2394 16.8561 21.5316 17.5546 21.7799C16.9436 23.9065 16.0997 25.1427 15.4449 25.1427C14.9256 25.1427 14.3005 24.3835 13.8108 23.16C13.7911 23.1106 13.7572 23.0119 13.7205 22.9032C13.0573 23.1643 12.3729 23.3759 11.8649 23.5213C11.9086 23.6539 11.9566 23.7936 11.9947 23.8868C13.0573 26.5411 14.4571 27.0985 15.4449 27.0985C17.2964 27.0985 18.6356 25.13 19.4343 22.3486C19.7772 22.4333 20.1116 22.5052 20.4376 22.5631C21.1248 22.6845 21.7246 22.7381 22.2495 22.7381ZM13.101 10.0674C13.2972 9.19387 13.5568 8.39234 13.5568 8.39234C14.1933 6.5649 14.9637 5.74643 15.4449 5.74643C16.0997 5.74643 16.9436 6.9826 17.5546 9.10921C16.0828 9.63133 14.5348 10.351 13.0121 11.2302C12.9514 11.2654 12.8922 11.3007 12.8329 11.336C12.919 10.9014 13.0093 10.478 13.101 10.0674ZM11.7985 20.2291C9.07784 21.1788 7.35483 20.8288 7.04579 20.294C6.81577 19.8946 7.10788 18.8659 8.28195 17.466C8.47246 17.2388 8.6799 17.0102 8.90004 16.783C10.1164 17.8174 11.5304 18.8024 13.0121 19.659C13.0488 19.6801 13.0869 19.7013 13.1236 19.7225C12.5958 19.9313 12.0906 20.1275 11.7985 20.2291ZM13.9901 17.9656C12.5676 17.1443 11.3512 16.2807 10.3479 15.4424C11.4048 14.5619 12.641 13.7039 13.9901 12.925C15.3391 12.146 16.6995 11.5039 17.9907 11.0298C18.2164 12.3182 18.3547 13.8041 18.3547 15.4453C18.3547 17.0864 18.2164 18.5738 17.9907 19.8608C16.6995 19.3866 15.3391 18.7445 13.9901 17.9656ZM20.3092 15.084C20.9964 15.7219 21.7584 16.4966 22.4061 17.2318C23.8342 18.8532 24.0854 19.8777 23.8441 20.294C23.6141 20.6933 22.5755 20.953 20.7777 20.6369C20.4856 20.5861 20.185 20.5198 19.8774 20.4436C20.1652 18.8729 20.312 17.1556 20.312 15.4439C20.3106 15.3253 20.3106 15.204 20.3092 15.084Z" fill="#FFA729"/>
<path d="M15.445 13.5106C14.3781 13.5106 13.5103 14.3784 13.5103 15.4453C13.5103 16.5121 14.3781 17.38 15.445 17.38C16.5118 17.38 17.3796 16.5121 17.3796 15.4453C17.3796 14.3784 16.5118 13.5106 15.445 13.5106Z" fill="#FFA729"/>
<path d="M30.89 15.4453C30.89 6.89934 23.9133 -0.0463351 15.3575 0.000232804C7.34072 0.0439784 0.555913 6.40544 0.0337872 14.4067C-0.338756 20.1303 2.39041 25.4602 7.18549 28.4998L7.17985 30.7322L1.96424 30.7492V27.1973H0.00979767V32.6881H9.13711L9.14276 28.4645C9.14417 27.8112 8.80549 27.2072 8.2368 26.8474C4.30534 24.3623 1.95718 20.1006 1.95718 15.4453C1.95718 8.03391 7.96586 1.99983 15.3673 1.95609C22.6192 1.91375 28.6872 7.73615 28.9271 14.9838C29.0879 19.817 26.7172 24.2805 22.6559 26.8474C22.0872 27.2072 21.7486 27.8112 21.75 28.4645L21.7598 32.6881H30.8829V27.1973H28.9271L28.944 30.7322L23.7115 30.7492L23.7058 28.4984C28.2032 25.6521 30.89 20.7738 30.89 15.4453Z" fill="#FFA729"/>
</svg>
